<svg width="32" height="32" viewBox="0 0 32 32" fill="none" xmlns="http://www.w3.org/2000/svg">
<rect width="32" height="32" rx="10" fill="#FFFCF4"/>
<path fill-rule="evenodd" clip-rule="evenodd" d="M11.7585 9.01547C9.92908 9.12634 8.40207 9.42747 6.96762 9.96017C5.58272 10.4745 4.43415 11.1753 4.08919 11.7165C3.97549 11.8949 3.97002 12.0863 4.07554 12.1918C4.23173 12.348 4.52502 12.3345 5.37642 12.1321C6.16643 11.9444 6.92429 11.795 7.42922 11.7275C7.99986 11.6512 9.44851 11.651 9.98988 11.7271C11.8624 11.9904 13.5763 12.7853 14.7823 13.9502C15.9572 15.0848 16.6328 16.4726 16.5695 17.6212C16.5505 17.9656 16.4223 18.3944 16.2578 18.6634C16.1047 18.9138 15.9494 19.2402 15.9011 19.413C15.8743 19.509 15.8591 19.7087 15.8603 19.9485C15.8619 20.2599 15.8783 20.3963 15.9486 20.6828C16.3076 22.1466 16.9065 22.9701 17.6683 23.0476C17.8027 23.0613 18.1947 23.014 18.6273 22.932C19.185 22.8262 19.7415 22.9781 20.4222 23.4218C20.7874 23.6598 20.7984 23.6628 21.0352 23.5897C21.1448 23.5559 21.3152 23.5282 21.414 23.5282C21.5834 23.5282 21.5993 23.5217 21.6934 23.4135C22.0375 23.0181 22.2478 22.8863 22.6752 22.7982L22.9191 22.748L23.0728 22.5185C23.3807 22.059 23.687 21.7777 24.0887 21.5854C24.481 21.3976 24.6203 21.3708 25.1901 21.3736C25.8657 21.3769 26.2407 21.4476 26.7264 21.6634L26.8859 21.7342L27.2302 21.6493C27.586 21.5615 27.8139 21.4658 27.9037 21.3664C27.9818 21.28 28.0209 21.0617 27.9887 20.8919C27.9499 20.6872 27.8636 20.5293 27.4299 19.8689C27.2211 19.5508 26.7579 18.8028 26.4005 18.2065C23.517 13.3958 21.6564 11.5448 18.3751 10.2226C17.1719 9.73777 16.4898 9.53128 15.2855 9.28725C14.2171 9.07075 12.7329 8.95638 11.7585 9.01547ZM11.5291 9.24215C10.9726 9.26635 9.97314 9.38314 9.41795 9.48881C8.04514 9.75016 6.57532 10.2447 5.64086 10.7598C5.01208 11.1064 4.3994 11.5482 4.3062 11.7223C4.21692 11.8892 4.46659 11.9179 4.95095 11.7966C5.3598 11.6943 5.90716 11.5482 6.15949 11.474C6.27728 11.4394 6.41496 11.404 6.46545 11.3952C6.51593 11.3865 6.6153 11.3575 6.68632 11.3308C6.79799 11.2888 6.81124 11.2745 6.78468 11.2249C6.76776 11.1933 6.76611 11.1675 6.78095 11.1675C6.79579 11.1675 6.82039 11.1927 6.83556 11.2235C6.86224 11.2777 6.87433 11.2778 7.18784 11.2261C8.12068 11.0722 8.78743 11.017 9.53415 11.0319C10.2534 11.0461 10.0993 10.9959 9.28027 10.9491C8.69986 10.916 8.0378 10.938 7.63574 11.0037C7.45097 11.0339 7.50393 10.9695 7.69693 10.9292C8.45812 10.7705 9.5466 10.773 10.6724 10.9359C12.0638 11.1373 12.8311 11.3191 13.1419 11.5211C13.1792 11.5454 13.2404 11.5652 13.2781 11.5652C13.3294 11.5652 13.3377 11.5739 13.3115 11.6002C13.2853 11.6264 13.2548 11.6265 13.1906 11.6005C13.0019 11.5242 12.265 11.3549 12.0492 11.3382L11.8197 11.3206L12.0186 11.3659C12.3853 11.4496 13.3467 11.7515 13.6286 11.8716C13.9623 12.0137 14.0685 12.0438 14.0685 11.9964C14.0685 11.957 13.884 11.7816 13.8411 11.7803C13.7885 11.7786 13.5484 11.6519 13.5484 11.6258C13.5484 11.6116 13.5897 11.6129 13.6402 11.6285C13.6907 11.6442 13.7698 11.669 13.8161 11.6835C13.8624 11.6982 13.9815 11.7519 14.0809 11.803C14.2236 11.8763 14.2634 11.9125 14.2701 11.9753C14.2757 12.0278 14.2637 12.0547 14.2347 12.0547C14.1562 12.0547 14.1885 12.1141 14.2903 12.1568C14.345 12.1798 14.4825 12.2554 14.5959 12.325C14.7768 12.4359 14.9874 12.5404 15.0336 12.5422C15.0422 12.5426 15.0814 12.5776 15.1207 12.62C15.1601 12.6625 15.2068 12.6972 15.2245 12.6972C15.2422 12.6972 15.2613 12.7111 15.267 12.7282C15.2726 12.7451 15.2944 12.7316 15.3153 12.6982C15.3486 12.6448 15.343 12.631 15.2693 12.5866C15.2231 12.5587 15.0889 12.4715 14.9711 12.3927C14.8533 12.314 14.6939 12.2134 14.6168 12.1692C14.5397 12.125 14.4571 12.0653 14.4332 12.0365C14.3767 11.9683 14.4093 11.9834 14.9996 12.2994C15.3526 12.4882 15.516 12.6106 15.5219 12.6904C15.5254 12.7378 15.5099 12.7584 15.4708 12.7584C15.3726 12.7584 15.4129 12.8308 15.5923 12.9767C16.0742 13.3685 16.2488 13.5205 16.5079 13.7742C16.6631 13.9263 16.8443 14.1145 16.9103 14.1924C17.2289 14.5681 17.3818 14.7672 17.4399 14.8819C17.4748 14.9509 17.5429 15.0574 17.5911 15.1187C17.6394 15.18 17.6788 15.2519 17.6788 15.2784C17.6788 15.305 17.7192 15.4062 17.7687 15.5035C17.943 15.8468 17.9997 16.1202 17.9989 16.6135C17.9983 17.0002 17.9872 17.0984 17.9129 17.3784C17.8286 17.6962 17.7659 17.8306 17.5633 18.128L17.459 18.281L17.581 18.1468C17.7606 17.9492 17.9727 17.5248 18.0502 17.2077C18.1987 16.6005 18.0979 15.9178 17.7705 15.3132C17.7249 15.2291 17.6777 15.1189 17.6657 15.0684L17.6438 14.9766L17.7511 15.0801C17.9775 15.2985 18.2296 16.097 18.2296 16.5958C18.2296 16.9913 18.0764 17.5986 17.8778 17.9903C17.7796 18.1842 17.4138 18.5758 17.2653 18.6463C17.2097 18.6727 17.1429 18.6861 17.1168 18.676C17.0586 18.6537 16.6709 19.041 16.5569 19.2355C16.3385 19.6082 16.2893 19.9563 16.3804 20.4839C16.4065 20.6353 16.4314 20.7799 16.4357 20.8052C16.4888 21.1172 16.6137 21.5168 16.7394 21.7767C16.8411 21.9868 17.0228 22.1871 17.19 22.2735C17.3262 22.3437 17.587 22.3864 17.587 22.3384C17.587 22.3197 17.559 22.3044 17.5248 22.3044C17.4208 22.3044 17.1686 22.1592 17.0335 22.0215C16.8874 21.8724 16.6709 21.4396 16.5962 21.1469C16.5388 20.9219 16.5394 20.9275 16.5712 20.9275C16.5978 20.9275 16.6452 21.05 16.6996 21.2591C16.7424 21.4233 16.9661 21.7771 17.1201 21.924C17.1834 21.9845 17.2873 22.0608 17.351 22.0938C17.4147 22.1267 17.4595 22.1655 17.4506 22.18C17.4417 22.1944 17.4545 22.2139 17.4792 22.2233C17.5038 22.2328 17.5312 22.2286 17.5402 22.2141C17.5492 22.1996 17.582 22.1944 17.6132 22.2025C17.7106 22.228 17.9294 22.1503 18.0226 22.0571C18.0717 22.008 18.1246 21.9678 18.1401 21.9678C18.1557 21.9678 18.1684 21.948 18.1684 21.9237C18.1684 21.8994 18.1845 21.8697 18.2042 21.8575C18.2289 21.8422 18.2336 21.8535 18.2194 21.8939C18.2028 21.9411 18.2107 21.9385 18.2601 21.8803C18.3744 21.7455 18.3239 21.4673 18.1613 21.3356C18.0664 21.2588 17.9132 21.0499 17.9517 21.0499C17.9689 21.0499 18.0135 21.0912 18.0508 21.1417C18.0881 21.1922 18.1425 21.2335 18.1716 21.2335C18.2006 21.2335 18.229 21.2443 18.2347 21.2575C18.2403 21.2708 18.2908 21.3139 18.347 21.3533C18.4138 21.4002 18.4867 21.5032 18.5577 21.6505C18.6551 21.853 18.7191 21.9302 18.7191 21.8454C18.7191 21.8286 18.7397 21.8148 18.765 21.8148C18.7974 21.8148 18.8113 21.781 18.8125 21.7001L18.814 21.5853L18.8616 21.7001C18.9157 21.8304 18.9562 21.8465 18.9767 21.746C18.9844 21.7081 19.0001 21.6358 19.0115 21.5853C19.0229 21.5349 19.034 21.4437 19.0363 21.3827C19.0388 21.3125 19.0534 21.2769 19.0758 21.2855C19.0953 21.293 19.1205 21.2702 19.1317 21.2349C19.1677 21.1216 19.0267 20.8952 18.7432 20.6109C18.4064 20.2731 18.3247 20.1334 18.6332 20.4227C18.9895 20.7569 19.2086 20.9351 19.2091 20.8912C19.2095 20.8598 19.2154 20.8603 19.2365 20.8936C19.2538 20.9209 19.2713 20.8309 19.2855 20.6424C19.2978 20.4778 19.3207 20.3514 19.3375 20.3551C19.354 20.3586 19.3798 20.3297 19.3948 20.2908C19.4176 20.2321 19.4041 20.2016 19.3154 20.1102C19.2567 20.0497 19.2086 19.986 19.2086 19.9685C19.2086 19.9511 19.2259 19.9582 19.2469 19.9844C19.2993 20.0498 19.5399 20.1781 19.5643 20.1537C19.5752 20.1428 19.5615 20.0996 19.534 20.0576C19.4629 19.949 19.4709 19.9414 19.5834 20.01C19.7039 20.0835 19.717 20.0844 19.7411 20.0216C19.7549 19.9856 19.747 19.9773 19.7118 19.9908C19.675 20.0049 19.668 19.9953 19.6824 19.9499C19.6943 19.9125 19.6721 19.8466 19.6223 19.7713C19.5562 19.6714 19.5138 19.6438 19.3611 19.6014C19.2609 19.5735 19.1581 19.5507 19.1326 19.5507C19.1071 19.5507 19.0862 19.5377 19.0862 19.5217C19.0862 19.5053 19.1458 19.5001 19.2239 19.5097C19.3184 19.5212 19.3616 19.5153 19.3616 19.4907C19.3616 19.4682 19.3855 19.4624 19.4258 19.4752C19.4818 19.493 19.4874 19.4864 19.4692 19.4237C19.4503 19.3585 19.4556 19.3604 19.5263 19.4436C19.5691 19.4941 19.6052 19.5492 19.6065 19.566C19.6078 19.5828 19.6478 19.6421 19.6954 19.6977C19.7722 19.7875 19.7836 19.7923 19.7972 19.7403C19.8158 19.6694 19.7569 19.5204 19.6875 19.4628C19.6597 19.4398 19.6369 19.3778 19.6368 19.3252C19.6366 19.2725 19.6091 19.115 19.5756 18.9751C19.5177 18.7338 19.4976 18.5751 19.5288 18.6063C19.5578 18.6353 19.7069 19.2018 19.7069 19.283C19.7069 19.3293 19.7191 19.3671 19.7339 19.3671C19.7487 19.3671 19.7759 19.405 19.7944 19.4513L19.8278 19.5354L19.8574 19.451C19.8796 19.3879 19.8699 19.2949 19.8194 19.0838C19.7822 18.9283 19.7475 18.7529 19.7423 18.694C19.7333 18.5909 19.5731 17.9448 19.5268 17.8247C19.5122 17.787 19.5156 17.7732 19.5361 17.7859C19.5537 17.7967 19.605 17.947 19.6503 18.1198C19.6955 18.2926 19.7513 18.4753 19.7743 18.5258C19.8174 18.6204 19.8423 18.6999 19.9271 19.0153C19.9542 19.1163 19.9848 19.2251 19.9951 19.2572C20.0072 19.295 20.002 19.3083 19.9805 19.2949C19.9334 19.2659 19.8984 19.3348 19.9393 19.3758C19.9999 19.4364 20.069 19.308 20.0495 19.1713C20.0342 19.0635 20.0373 19.0559 20.0824 19.0933C20.1255 19.129 20.1402 19.1244 20.1906 19.0597C20.2227 19.0184 20.2687 18.9227 20.2927 18.847C20.3167 18.7713 20.3374 18.7293 20.3385 18.7537C20.3402 18.7873 20.3493 18.7895 20.3761 18.7626C20.4029 18.7358 20.4023 18.7161 20.3736 18.6815C20.3527 18.6564 20.3415 18.611 20.3486 18.5808C20.3591 18.5365 20.3685 18.5425 20.397 18.6117C20.4164 18.659 20.4447 18.6901 20.4598 18.6808C20.4749 18.6714 20.5048 18.5458 20.5263 18.4017C20.5746 18.0768 20.5418 17.8322 20.3848 17.3466C20.0673 16.3643 19.2524 15.0996 18.3589 14.2023C17.9927 13.8345 17.7678 13.6537 16.9445 13.0651C16.6332 12.8425 16.351 12.6358 16.3173 12.6058C16.2017 12.5028 15.2462 11.8805 14.8886 11.6754C14.3219 11.3504 13.533 11.0144 12.874 10.8174C12.5484 10.7201 11.8498 10.5673 11.6056 10.5401C11.5046 10.5289 11.3876 10.5142 11.3455 10.5075C11.3034 10.5008 11.0487 10.4866 10.7795 10.4761C10.4039 10.4612 10.1118 10.472 9.52503 10.5224C8.12405 10.6425 7.60413 10.7305 6.50442 11.0337C5.86616 11.2097 5.86467 11.1632 6.4987 10.8558C7.59777 10.323 8.76788 9.99759 10.1217 9.84832C10.7092 9.78354 11.8691 9.82757 12.3314 9.93221C12.4446 9.95782 12.5534 9.96874 12.5733 9.95647C12.5936 9.94393 12.6013 9.94726 12.5909 9.96406C12.5797 9.98214 12.6499 9.99609 12.7684 9.99934L12.9643 10.0048L12.9844 9.8977C13.0177 9.71994 13.0532 9.75543 13.0678 9.98113C13.0749 10.0917 13.0485 10.079 13.5331 10.2051C13.7014 10.2489 13.8704 10.2973 13.9087 10.3128C13.9861 10.3439 14.006 10.3117 14.0725 10.0477C14.1122 9.88983 14.1603 9.84229 14.1603 9.96085C14.1603 10.023 14.1696 10.0352 14.1986 10.0112C14.2285 9.98633 14.2366 10.0222 14.2357 10.1765C14.2349 10.3224 14.2446 10.3696 14.2731 10.3587C14.2942 10.3506 14.3296 10.3606 14.3517 10.3809C14.4163 10.4403 14.7005 10.5861 14.7515 10.5861C14.7773 10.5861 14.8033 10.6102 14.8095 10.6397C14.8164 10.6728 14.8428 10.6349 14.8787 10.5402C14.9106 10.4561 14.966 10.3432 15.0017 10.2893L15.0666 10.1913L15.0535 10.3724C15.0342 10.6389 15.0633 10.7524 15.1628 10.7991C15.2088 10.8207 15.2856 10.8589 15.3334 10.884C15.4179 10.9282 15.4241 10.926 15.5437 10.8114C15.6432 10.716 15.6596 10.708 15.6287 10.7697C15.6077 10.8118 15.5692 10.8705 15.5433 10.9002C15.5005 10.9492 15.5016 10.9583 15.5549 10.9977C15.5872 11.0215 15.6756 11.0717 15.7513 11.109C15.9312 11.1978 16.4659 11.5087 16.4856 11.5359C16.494 11.5475 16.5792 11.6069 16.6748 11.6679C16.7704 11.7288 16.8573 11.7926 16.8678 11.8096C16.9075 11.8739 16.9726 11.8364 17.0241 11.7196C17.072 11.6109 17.0815 11.6039 17.1171 11.6507C17.1703 11.7207 17.1686 11.7942 17.1128 11.8406C17.0876 11.8615 17.0669 11.8888 17.0669 11.9011C17.0669 11.9135 17.169 12.0074 17.2938 12.1099C17.4186 12.2123 17.6612 12.4309 17.8329 12.5957C18.0045 12.7604 18.1674 12.8954 18.1949 12.8957C18.2234 12.8959 18.243 12.9189 18.2407 12.9493C18.2384 12.9786 18.2496 12.9944 18.2657 12.9845C18.2818 12.9746 18.3432 13.0229 18.4023 13.0919C18.4614 13.1609 18.5277 13.2174 18.5496 13.2174C18.5716 13.2174 18.5982 13.2483 18.6087 13.2862C18.6249 13.3443 18.6398 13.3265 18.7039 13.1715C18.7458 13.0705 18.7801 12.9679 18.7801 12.9435C18.7803 12.9108 18.7893 12.9082 18.8145 12.9334C18.8567 12.9756 18.7948 13.2767 18.7339 13.3257C18.7032 13.3504 18.7363 13.401 18.8808 13.5505C19.055 13.7307 19.0701 13.7398 19.1091 13.687C19.1479 13.6345 19.1499 13.6359 19.1372 13.7071C19.1271 13.7639 19.1583 13.8275 19.2573 13.9519C19.3309 14.0443 19.4444 14.189 19.5096 14.2733C19.5748 14.3576 19.8244 14.6226 20.0644 14.8622C20.3044 15.1018 20.4863 15.2979 20.4687 15.2979C20.451 15.2979 20.3858 15.2359 20.3237 15.1602C20.2617 15.0845 20.1979 15.0225 20.182 15.0225C20.166 15.0225 20.2001 15.081 20.2575 15.1526C20.3783 15.3027 20.6024 15.631 20.6921 15.789C20.726 15.8488 20.7675 15.9201 20.7843 15.9475C20.8035 15.9787 20.8666 16.001 20.9526 16.0071C21.0764 16.0159 21.0903 16.0246 21.0903 16.0934C21.0903 16.1488 21.0718 16.1725 21.0232 16.1794C20.9589 16.1886 20.9627 16.2022 21.1165 16.516C21.2046 16.6958 21.3008 16.9033 21.3302 16.977C21.3802 17.1025 21.3864 17.1074 21.4272 17.0535C21.4512 17.0219 21.4712 16.9786 21.4717 16.9574C21.4727 16.9193 21.3868 16.7078 21.3041 16.5447C21.2356 16.4096 21.2966 16.4478 21.3964 16.6024C21.6294 16.9633 21.6437 17.0347 21.5033 17.1385C21.4026 17.2129 21.3942 17.2458 21.4465 17.3605C21.469 17.41 21.5033 17.435 21.5426 17.4308C21.6234 17.4222 21.6451 17.4886 21.5681 17.5087C21.5146 17.5227 21.5113 17.5372 21.5381 17.6426C21.5678 17.7597 21.5696 17.7609 21.7177 17.7609C21.9913 17.7609 21.9958 17.8672 21.7267 17.9715C21.5878 18.0254 21.5785 18.0357 21.5886 18.1245C21.5946 18.1769 21.5859 18.2796 21.5693 18.3527C21.5357 18.5006 21.5228 18.4969 21.7634 18.4082C21.8512 18.3757 21.8969 18.3722 21.9253 18.3956C21.947 18.4136 22.0158 18.4322 22.0782 18.437C22.1407 18.4417 22.1986 18.447 22.207 18.4486C22.2154 18.4502 22.1259 18.4969 22.0081 18.5525C21.862 18.6215 21.7518 18.7012 21.661 18.8038C21.5879 18.8865 21.4899 18.9965 21.4433 19.0484C21.3727 19.1269 21.3582 19.1713 21.3569 19.3126L21.3554 19.4824L21.4906 19.4069C21.6218 19.3335 21.6257 19.3331 21.6257 19.3933C21.6257 19.4379 21.5739 19.483 21.4421 19.5532C21.3412 19.607 21.2585 19.6618 21.2585 19.6749C21.2585 19.688 21.2502 19.7205 21.24 19.7471C21.2239 19.7889 21.2568 19.7955 21.4802 19.7955C21.7192 19.7955 21.7486 19.8025 21.8659 19.8875C21.9999 19.9845 22.0382 20.077 21.933 20.0495C21.7823 20.0101 21.0501 20.1902 20.922 20.2982C20.8968 20.3195 20.852 20.3455 20.8226 20.3559C20.7422 20.3844 20.7536 20.4669 20.835 20.4456C20.879 20.4341 20.8939 20.4397 20.8798 20.4626C20.8682 20.4814 20.8105 20.5059 20.7516 20.5169C20.5674 20.5515 20.3221 20.791 20.1702 21.0847C20.1299 21.1627 20.1471 21.1523 20.2693 21.0246C20.3506 20.9396 20.4516 20.8575 20.4937 20.8421C20.5989 20.8037 20.8052 20.8005 20.8608 20.8363C20.8987 20.8608 20.8881 20.8805 20.7996 20.9498C20.7407 20.9959 20.6306 21.0896 20.5548 21.158C20.4791 21.2265 20.3812 21.3049 20.3373 21.3324C20.1979 21.4195 20.0653 21.6536 20.0653 21.8126C20.0653 22.1504 20.3659 22.7334 20.628 22.9038L20.7537 22.9856L20.6639 22.8897C20.6144 22.837 20.5882 22.7939 20.6056 22.7939C20.623 22.7939 20.6625 22.8219 20.6935 22.8561C20.7245 22.8904 20.7686 22.9112 20.7916 22.9024C20.8146 22.8936 20.8259 22.8985 20.8168 22.9133C20.8076 22.9281 20.8337 22.9622 20.8748 22.9891C20.9159 23.016 20.9572 23.0254 20.9667 23.0099C20.9763 22.9945 20.9578 22.9735 20.9257 22.9634C20.8937 22.9532 20.8611 22.9209 20.8535 22.8917C20.8411 22.8441 20.8544 22.8456 20.9802 22.9057C21.1556 22.9894 21.2722 23.0242 21.2484 22.9858C21.2387 22.97 21.2501 22.9571 21.2738 22.9571C21.2976 22.9571 21.3099 22.9685 21.3013 22.9826C21.2926 22.9966 21.3139 23.0081 21.3485 23.0081C21.4234 23.0081 21.4275 22.989 21.3656 22.9272C21.2948 22.8564 21.3088 22.8322 21.4583 22.766C21.5345 22.7324 21.6777 22.6277 21.7764 22.5335C21.8951 22.4203 21.9615 22.3757 21.972 22.4021C21.981 22.4244 21.9891 22.4138 21.9904 22.3779C21.9917 22.3427 22.0204 22.2889 22.054 22.2585C22.0877 22.228 22.1171 22.1673 22.1194 22.1237C22.1235 22.045 22.1237 22.0449 22.1375 22.1181C22.1451 22.1587 22.1693 22.2098 22.1912 22.2317C22.2239 22.2644 22.2312 22.2594 22.2319 22.2038C22.2357 21.9219 22.4138 21.5508 22.6631 21.3054C22.746 21.2238 22.8617 21.0856 22.9201 20.9984C23.0517 20.8019 23.2163 20.6233 23.2165 20.6769C23.2166 20.699 23.2307 20.7083 23.2478 20.6978C23.2649 20.6872 23.2719 20.6673 23.2634 20.6535C23.2548 20.6397 23.2925 20.5949 23.347 20.554C23.4738 20.4588 23.5226 20.4302 23.5226 20.4511C23.5226 20.4602 23.4673 20.5044 23.3996 20.5491C23.332 20.5939 23.2828 20.6367 23.2904 20.6443C23.298 20.6519 23.3661 20.6154 23.4419 20.5633C23.5176 20.5112 23.587 20.4686 23.5961 20.4686C23.6052 20.4686 23.6879 20.4342 23.7798 20.3921C23.8718 20.35 23.962 20.3156 23.9802 20.3156C23.9985 20.3156 24.0649 20.2831 24.1278 20.2434C24.3037 20.1324 24.5071 20.04 24.5362 20.058C24.5506 20.0669 24.5854 20.0613 24.6135 20.0456C24.659 20.0201 24.6573 20.0146 24.5985 19.996C24.493 19.9625 24.5194 19.9089 24.6317 19.9286C24.9596 19.9858 25.0524 19.9962 25.0524 19.9756C25.0524 19.963 25.0249 19.9439 24.9912 19.9332C24.9576 19.9225 24.9301 19.8998 24.9301 19.8827C24.9301 19.8656 24.9748 19.8786 25.0295 19.9114C25.0842 19.9443 25.1817 19.9791 25.2461 19.9889C25.3462 20.004 25.358 20.0001 25.3265 19.9622C25.284 19.911 25.3056 19.9051 25.3818 19.9472C25.411 19.9634 25.5519 20.0045 25.695 20.0386C25.9211 20.0924 26.4744 20.3395 26.521 20.4075C26.5295 20.4197 26.5958 20.4599 26.6684 20.4968C26.7814 20.554 26.8156 20.5588 26.904 20.5296C27.017 20.4923 27.192 20.3141 27.1978 20.2304C27.2049 20.128 27.1878 20.0913 26.9973 19.7997C26.8914 19.6375 26.6901 19.2914 26.55 19.0306C26.2547 18.481 25.8166 17.741 25.273 16.8736C23.6821 14.3352 22.2619 12.7345 20.6619 11.6767C20.1303 11.3252 20.0793 11.2959 19.4342 10.9716C18.375 10.4394 17.109 9.9562 16.2102 9.74129C16.0335 9.69904 15.8614 9.65773 15.8278 9.64947L15.7666 9.63448L15.8278 9.6861C15.882 9.73184 15.8826 9.73548 15.8329 9.71828C15.8021 9.70761 15.7574 9.69885 15.7335 9.69885C15.7096 9.69885 15.662 9.67074 15.6276 9.63638C15.4558 9.46458 13.3093 9.1943 12.2787 9.21464C12.1609 9.21697 11.8235 9.22936 11.5291 9.24215ZM13.3266 9.56613C13.3476 9.57464 13.382 9.57464 13.4031 9.56613C13.4241 9.55765 13.4069 9.55071 13.3648 9.55071C13.3227 9.55071 13.3056 9.55765 13.3266 9.56613ZM13.5872 9.59767C13.617 9.60545 13.6583 9.60493 13.679 9.59654C13.6997 9.58816 13.6754 9.58183 13.6249 9.58244C13.5744 9.58305 13.5574 9.5899 13.5872 9.59767ZM13.7493 9.61031C13.7637 9.63359 14.3404 9.71256 14.3591 9.69384C14.3663 9.68662 14.2294 9.66052 14.0548 9.63586C13.8802 9.6112 13.7427 9.59969 13.7493 9.61031ZM15.6819 9.61086C15.7027 9.63179 15.7274 9.64118 15.7368 9.63176C15.7462 9.62233 15.7292 9.60523 15.6991 9.59373C15.6555 9.57714 15.6519 9.58063 15.6819 9.61086ZM14.428 9.71911C14.4491 9.72761 14.4835 9.72761 14.5045 9.71911C14.5256 9.71063 14.5083 9.70369 14.4663 9.70369C14.4242 9.70369 14.407 9.71063 14.428 9.71911ZM9.57093 9.77534C9.50144 9.80212 9.48532 9.81692 9.52503 9.81754C9.55869 9.81806 9.62753 9.79958 9.67801 9.77645C9.79642 9.72223 9.71112 9.72134 9.57093 9.77534ZM11.6056 9.76005C11.616 9.77687 11.6305 9.79064 11.638 9.79064C11.6454 9.79064 11.6514 9.77687 11.6514 9.76005C11.6514 9.74322 11.6369 9.72945 11.619 9.72945C11.6012 9.72945 11.5951 9.74322 11.6056 9.76005ZM15.9291 9.75035C15.9512 9.75919 15.9776 9.75809 15.9878 9.74793C15.9979 9.73777 15.9799 9.73055 15.9476 9.73187C15.912 9.73334 15.9047 9.74059 15.9291 9.75035ZM14.9195 9.81154C14.9415 9.82038 14.9679 9.81928 14.9781 9.80912C14.9883 9.79896 14.9702 9.79174 14.938 9.79306C14.9023 9.79453 14.8951 9.80178 14.9195 9.81154ZM9.38163 9.84214C9.40369 9.85098 9.43009 9.84988 9.44025 9.83972C9.45041 9.82956 9.43236 9.82234 9.40011 9.82366C9.36446 9.82512 9.35721 9.83238 9.38163 9.84214ZM15.1642 9.84214C15.1863 9.85098 15.2127 9.84988 15.2229 9.83972C15.233 9.82956 15.215 9.82234 15.1827 9.82366C15.1471 9.82512 15.1398 9.83238 15.1642 9.84214ZM16.2657 10.1175C16.2878 10.1263 16.3142 10.1252 16.3243 10.1151C16.3345 10.1049 16.3164 10.0977 16.2842 10.099C16.2485 10.1005 16.2413 10.1077 16.2657 10.1175ZM13.9308 10.2496C13.9412 10.2664 13.9558 10.2802 13.9632 10.2802C13.9707 10.2802 13.9767 10.2664 13.9767 10.2496C13.9767 10.2328 13.9621 10.219 13.9443 10.219C13.9265 10.219 13.9204 10.2328 13.9308 10.2496ZM7.04677 10.3414C7.03636 10.3582 7.04163 10.372 7.05845 10.372C7.07528 10.372 7.09756 10.3582 7.10796 10.3414C7.11836 10.3245 7.1131 10.3108 7.09627 10.3108C7.07944 10.3108 7.05717 10.3245 7.04677 10.3414ZM17.4035 10.4332C17.4287 10.4495 17.4631 10.4628 17.48 10.4628C17.4968 10.4628 17.4899 10.4495 17.4647 10.4332C17.4394 10.4168 17.405 10.4035 17.3882 10.4035C17.3713 10.4035 17.3782 10.4168 17.4035 10.4332ZM17.587 10.4998C17.6291 10.5198 17.9595 10.6813 18.3213 10.8585C19.1491 11.2641 19.2926 11.331 19.2545 11.2936C19.1622 11.2031 17.7852 10.5337 17.587 10.483L17.5106 10.4634L17.587 10.4998ZM9.83864 10.6383C9.87652 10.6456 9.93844 10.6456 9.97632 10.6383C10.0142 10.631 9.98321 10.6251 9.90748 10.6251C9.83176 10.6251 9.80076 10.631 9.83864 10.6383ZM10.42 10.6383C10.4578 10.6456 10.5198 10.6456 10.5576 10.6383C10.5955 10.631 10.5645 10.6251 10.4888 10.6251C10.4131 10.6251 10.3821 10.631 10.42 10.6383ZM10.6667 10.6376C10.6887 10.6465 10.7151 10.6454 10.7253 10.6352C10.7354 10.6251 10.7174 10.6178 10.6851 10.6191C10.6495 10.6206 10.6422 10.6279 10.6667 10.6376ZM10.8713 10.6473C10.8608 10.6642 10.8661 10.6779 10.8829 10.6779C10.8998 10.6779 10.922 10.6642 10.9324 10.6473C10.9428 10.6305 10.9376 10.6167 10.9208 10.6167C10.9039 10.6167 10.8817 10.6305 10.8713 10.6473ZM15.3058 10.6716C15.3181 10.6934 15.3116 10.7313 15.2913 10.7558C15.2641 10.7884 15.2637 10.8003 15.2896 10.8003C15.3437 10.8003 15.3665 10.7089 15.3225 10.6682C15.2921 10.6401 15.2884 10.6408 15.3058 10.6716ZM11.6427 10.7426C11.6713 10.7712 11.9828 10.8201 11.9574 10.792C11.949 10.7827 11.8688 10.7618 11.7791 10.7456C11.6894 10.7293 11.628 10.7279 11.6427 10.7426ZM16.1348 10.7877C16.1063 10.8312 16.0898 10.8736 16.0982 10.882C16.118 10.9019 16.2408 10.7788 16.2408 10.7391C16.2408 10.6831 16.1873 10.7076 16.1348 10.7877ZM12.0186 10.8309C12.0438 10.8472 12.0851 10.8598 12.1104 10.8589C12.1406 10.8578 12.1354 10.8482 12.0951 10.8309C12.011 10.7948 11.9627 10.7948 12.0186 10.8309ZM12.2372 10.8783C12.2768 10.8988 12.4125 10.9325 12.5387 10.9533C12.6649 10.9742 12.8054 11.0102 12.8508 11.0334C12.8963 11.0567 12.9513 11.0745 12.9732 11.0732C13.0827 11.0663 12.5455 10.8921 12.4148 10.8921C12.382 10.8921 12.3552 10.8806 12.3552 10.8666C12.3552 10.8526 12.3124 10.8411 12.2601 10.8411C12.1664 10.8411 12.1661 10.8416 12.2372 10.8783ZM15.7513 10.9839C15.7513 11.0007 15.7659 11.0145 15.7837 11.0145C15.8015 11.0145 15.8076 11.0007 15.7972 10.9839C15.7868 10.9671 15.7722 10.9533 15.7648 10.9533C15.7574 10.9533 15.7513 10.9671 15.7513 10.9839ZM15.9844 11.0798C15.9439 11.1376 15.9439 11.1503 15.9842 11.1906C16.0245 11.2309 16.0347 11.2295 16.0731 11.1788C16.1254 11.1098 16.1297 11.0757 16.086 11.0757C16.0682 11.0757 16.0621 11.0619 16.0725 11.0451C16.1102 10.9842 16.0289 11.0162 15.9844 11.0798ZM10.6265 11.1057C10.7948 11.1355 10.9875 11.1704 11.0548 11.1831C11.1221 11.1958 11.1688 11.1971 11.1585 11.186C11.1307 11.1559 10.5326 11.0446 10.4189 11.0483C10.3648 11.05 10.4582 11.0759 10.6265 11.1057ZM13.0589 11.1063C13.0841 11.1226 13.1185 11.1359 13.1353 11.1359C13.1522 11.1359 13.1453 11.1226 13.12 11.1063C13.0948 11.09 13.0604 11.0766 13.0436 11.0766C13.0267 11.0766 13.0336 11.09 13.0589 11.1063ZM11.705 11.3101C11.726 11.3186 11.7605 11.3186 11.7815 11.3101C11.8025 11.3016 11.7853 11.2947 11.7432 11.2947C11.7012 11.2947 11.684 11.3016 11.705 11.3101ZM17.1676 11.4122C17.1485 11.4564 17.1459 11.5008 17.1614 11.5173C17.2028 11.5612 17.2258 11.5189 17.2126 11.4227L17.2008 11.3357L17.1676 11.4122ZM19.7594 11.6715C19.7594 11.6795 19.8032 11.7087 19.8568 11.7364C20.0507 11.8366 21.1482 12.7239 21.6203 13.162C22.0176 13.5307 22.1957 13.724 22.4739 14.0885C22.7122 14.4006 23.0507 14.7437 22.9275 14.5483C22.8647 14.4486 22.7286 14.2789 22.4249 13.9214C21.7507 13.1278 20.6921 12.1943 19.9848 11.7696C19.8026 11.6602 19.7594 11.6414 19.7594 11.6715ZM17.2658 11.81C17.2554 11.8268 17.2606 11.8406 17.2775 11.8406C17.2943 11.8406 17.3166 11.8268 17.327 11.81C17.3374 11.7931 17.3321 11.7794 17.3153 11.7794C17.2985 11.7794 17.2762 11.7931 17.2658 11.81ZM21.0668 12.3033C21.0876 12.3242 21.1123 12.3336 21.1217 12.3242C21.1311 12.3148 21.1141 12.2977 21.0839 12.2862C21.0403 12.2696 21.0368 12.2731 21.0668 12.3033ZM17.904 12.4046C17.9017 12.4456 17.9189 12.4864 17.9423 12.4954C17.987 12.5126 17.9977 12.4605 17.9662 12.3785C17.9388 12.3071 17.9089 12.3197 17.904 12.4046ZM15.9043 12.5856C15.9043 12.5926 15.9404 12.6221 15.9845 12.651C16.0287 12.6799 16.0554 12.6885 16.044 12.67C16.0222 12.6347 15.9043 12.5634 15.9043 12.5856ZM15.5873 12.7431C15.5763 12.7718 15.6008 12.8089 15.6528 12.8423C15.6986 12.8716 15.7498 12.9064 15.7666 12.9195C15.7834 12.9327 15.866 12.9944 15.9502 13.0567C16.4596 13.4338 17.0166 13.9599 17.4485 14.4718C17.6949 14.7638 17.7094 14.7824 17.7094 14.8062C17.7094 14.819 17.737 14.8544 17.7706 14.8849C17.8574 14.9634 17.848 14.9347 17.7092 14.697C17.5472 14.4198 17.1807 13.9775 16.8667 13.6803C16.6566 13.4814 15.6602 12.6972 15.6176 12.6972C15.6106 12.6972 15.5969 12.7179 15.5873 12.7431ZM16.0882 12.7177C16.0886 12.7428 16.4072 12.9778 16.469 12.9986C16.4865 13.0045 16.4596 12.9696 16.4091 12.921C16.3001 12.8161 16.0877 12.6816 16.0882 12.7177ZM18.5049 12.7727C18.5049 12.7985 18.5107 12.8196 18.5177 12.8196C18.5247 12.8196 18.5523 12.828 18.5789 12.8382C18.6492 12.8652 18.6383 12.7971 18.5661 12.7584C18.5173 12.7323 18.5049 12.7352 18.5049 12.7727ZM18.089 12.8152C18.1537 12.8881 18.1684 12.8948 18.1684 12.8513C18.1684 12.8351 18.1374 12.8055 18.0995 12.7857C18.0311 12.7497 18.031 12.7499 18.089 12.8152ZM20.9985 12.942C21.0289 12.9757 21.0607 13.0032 21.0692 13.0032C21.0776 13.0032 21.0595 12.9757 21.0291 12.942C20.9986 12.9084 20.9668 12.8808 20.9584 12.8808C20.95 12.8808 20.968 12.9084 20.9985 12.942ZM16.6384 13.1102C16.6779 13.1522 16.717 13.1798 16.7252 13.1715C16.7401 13.1566 16.613 13.0338 16.5827 13.0338C16.5739 13.0338 16.599 13.0682 16.6384 13.1102ZM16.761 13.197C16.761 13.2054 16.9159 13.3253 17.1052 13.4634C17.4469 13.7127 18.2907 14.5269 18.2907 14.6074C18.2907 14.6531 18.4064 14.7642 18.4297 14.7408C18.4818 14.6888 17.7264 13.8991 17.3365 13.5979C16.9024 13.2628 16.761 13.1642 16.761 13.197ZM21.3406 13.3245C21.376 13.3749 21.4351 13.4435 21.472 13.4769C21.5089 13.5102 21.589 13.6066 21.6499 13.6911C21.7108 13.7755 21.8187 13.9103 21.8896 13.9905C22.0334 14.1532 22.1603 14.3917 22.1532 14.4858C22.1501 14.5269 22.1565 14.5346 22.1724 14.509C22.1906 14.4794 22.207 14.4831 22.242 14.5246C22.3279 14.6265 22.4764 14.8845 22.6783 15.2826C22.8837 15.6878 22.9515 15.7669 22.7921 15.4155C22.7008 15.2141 22.207 14.3377 22.0998 14.1869C21.8449 13.8281 21.4782 13.3932 21.334 13.2786C21.2833 13.2383 21.2841 13.2439 21.3406 13.3245ZM19.0403 13.401C19.0508 13.4178 19.0653 13.4316 19.0728 13.4316C19.0802 13.4316 19.0862 13.4178 19.0862 13.401C19.0862 13.3841 19.0716 13.3704 19.0538 13.3704C19.036 13.3704 19.0299 13.3841 19.0403 13.401ZM19.5758 13.5386C19.5967 13.5639 19.6276 13.5845 19.6445 13.5845C19.6615 13.5845 19.6582 13.5642 19.637 13.5386C19.616 13.5134 19.5851 13.4927 19.5683 13.4927C19.5512 13.4927 19.5545 13.513 19.5758 13.5386ZM19.2086 13.5655C19.2086 13.5718 19.2327 13.5959 19.2622 13.619C19.3107 13.6571 19.3118 13.656 19.2737 13.6075C19.2337 13.5565 19.2086 13.5403 19.2086 13.5655ZM19.331 13.6885C19.331 13.7187 19.6495 14.0282 19.6807 14.0282C19.6987 14.0282 19.7263 14.1005 19.742 14.1888C19.7577 14.2771 19.7808 14.3494 19.7933 14.3494C19.8219 14.3494 19.9429 14.1975 19.9429 14.1617C19.9429 14.1472 19.924 14.1353 19.9009 14.1353C19.8777 14.1353 19.7705 14.0478 19.6625 13.9409C19.4878 13.7679 19.331 13.6485 19.331 13.6885ZM20.1884 13.9093C20.1875 13.952 20.4378 14.2625 20.4573 14.243C20.47 14.2303 20.4095 14.1452 20.2419 13.9399C20.2128 13.9043 20.1887 13.8905 20.1884 13.9093ZM19.9276 14.0435C19.938 14.0603 19.9603 14.0741 19.9771 14.0741C19.994 14.0741 19.9992 14.0603 19.9888 14.0435C19.9784 14.0266 19.9561 14.0129 19.9393 14.0129C19.9225 14.0129 19.9172 14.0266 19.9276 14.0435ZM15.6748 14.2882C15.7052 14.3219 15.7371 14.3494 15.7455 14.3494C15.7539 14.3494 15.7358 14.3219 15.7054 14.2882C15.675 14.2546 15.6431 14.227 15.6347 14.227C15.6263 14.227 15.6444 14.2546 15.6748 14.2882ZM15.83 14.4396C15.8481 14.4658 15.9593 14.6179 16.0771 14.7778C16.1949 14.9376 16.3431 15.1614 16.4064 15.275C16.5205 15.4797 16.5681 15.5357 16.5323 15.4229C16.5221 15.3906 16.5269 15.3561 16.5431 15.3461C16.5592 15.3361 16.5814 15.3692 16.5926 15.4197C16.6036 15.4701 16.6254 15.5192 16.6409 15.5288C16.6911 15.5598 16.671 15.4574 16.6049 15.3455C16.5396 15.2347 16.5049 15.2022 16.5345 15.2795C16.5681 15.3671 16.4864 15.3576 16.4404 15.2686C16.4141 15.2178 16.3963 15.1722 16.4008 15.1675C16.4054 15.1627 16.3784 15.1259 16.341 15.0857C16.3035 15.0455 16.2111 14.9218 16.1356 14.811C16.0601 14.7002 15.9531 14.5606 15.8978 14.5008C15.8425 14.4411 15.812 14.4135 15.83 14.4396ZM23.4955 14.6566C23.5227 14.698 23.676 14.9315 23.8362 15.1755C23.9964 15.4195 24.2062 15.7637 24.3025 15.9404C24.3987 16.1171 24.5221 16.3167 24.5767 16.3841C24.8249 16.6899 25.2672 17.4108 25.5333 17.9431C25.6934 18.2636 25.8765 18.6153 25.9401 18.7246C26.1256 19.0439 26.3312 19.4618 26.3974 19.6541C26.4537 19.8177 26.4543 19.8304 26.4057 19.8106C26.0582 19.6687 25.7653 19.6007 25.7493 19.6582C25.7416 19.6858 26.4258 19.9452 26.5123 19.9475C26.5882 19.9495 26.6135 19.838 26.5699 19.6932C26.4639 19.3411 25.4173 17.4699 24.8986 16.7053C24.8016 16.5623 24.4522 16.0365 24.1224 15.5368C23.7924 15.0371 23.5053 14.6178 23.4843 14.6048C23.4621 14.5911 23.4667 14.6126 23.4955 14.6566ZM23.0025 14.7376C23.0025 14.7491 23.0549 14.8214 23.1188 14.8982C23.2643 15.0728 23.6144 15.5567 23.6144 15.5831C23.6144 15.5939 23.6658 15.6821 23.7286 15.7792C23.7913 15.8763 23.8865 16.0452 23.9399 16.1546C23.9934 16.264 24.0595 16.381 24.0868 16.4146C24.1328 16.4712 24.1329 16.4667 24.0882 16.3539C24.045 16.245 23.8269 15.8377 23.7284 15.6823C23.7078 15.6498 23.6083 15.491 23.5073 15.3295C23.2689 14.9482 23.0025 14.6358 23.0025 14.7376ZM20.4637 14.7954C20.4634 14.8303 20.4949 14.8888 20.5339 14.9254C20.6703 15.0536 20.6654 14.9823 20.5258 14.8084C20.4677 14.736 20.4644 14.7353 20.4637 14.7954ZM16.3135 14.9002C16.3408 14.9422 16.3909 15.0283 16.425 15.0914C16.459 15.1545 16.4937 15.2061 16.5021 15.2061C16.527 15.2061 16.4015 14.9831 16.3299 14.9002L16.2639 14.8237L16.3135 14.9002ZM17.5259 14.9613C17.5259 14.9782 17.5404 14.9919 17.5583 14.9919C17.5761 14.9919 17.5821 14.9782 17.5717 14.9613C17.5613 14.9445 17.5468 14.9307 17.5393 14.9307C17.5319 14.9307 17.5259 14.9445 17.5259 14.9613ZM18.7803 14.9669C18.7803 14.9783 18.8312 15.073 18.8933 15.1774C18.9555 15.2817 19.0088 15.3894 19.0118 15.4167C19.0147 15.4439 19.0273 15.4937 19.0396 15.5274C19.0519 15.561 18.9763 15.4605 18.8717 15.304C18.767 15.1475 18.6752 15.0257 18.6675 15.0333C18.6486 15.0522 18.9686 15.538 19.0676 15.6408C19.1115 15.6863 19.1474 15.7353 19.1474 15.7496C19.1474 15.764 19.1678 15.8025 19.1927 15.8351C19.2428 15.9009 19.1499 15.5918 19.0543 15.3744C19.0018 15.2552 18.7803 14.9257 18.7803 14.9669ZM20.4631 15.0118C20.4631 15.0436 20.6434 15.2627 20.6454 15.2333C20.6461 15.223 20.6053 15.1625 20.5548 15.099C20.5044 15.0355 20.4631 14.9963 20.4631 15.0118ZM23.2762 15.5947C23.4118 15.859 23.5226 16.0875 23.5226 16.1025C23.5226 16.1425 23.6492 16.3136 23.6662 16.2966C23.6741 16.2887 23.5892 16.092 23.4774 15.8595C23.3628 15.6212 23.2884 15.4321 23.3068 15.4259C23.3247 15.4199 23.3307 15.401 23.3201 15.3838C23.3077 15.3638 23.2922 15.3665 23.2768 15.3914C23.2604 15.418 23.2223 15.3805 23.1556 15.2723C23.1022 15.1854 23.052 15.1143 23.0441 15.1143C23.0363 15.1143 23.1407 15.3305 23.2762 15.5947ZM20.7078 15.2C20.7078 15.2163 20.7444 15.2536 20.7891 15.2829C20.8338 15.3122 20.9034 15.3723 20.9439 15.4165C21.0051 15.4832 21.0121 15.4857 20.9855 15.4309C20.949 15.3556 20.7078 15.1551 20.7078 15.2ZM18.2602 15.2563C18.2602 15.2728 18.2816 15.3129 18.3077 15.3456C18.3526 15.4016 18.3532 15.4006 18.3189 15.3285C18.2743 15.2348 18.2602 15.2175 18.2602 15.2563ZM20.5563 15.405C20.5547 15.4488 20.6989 15.6226 20.7198 15.6019C20.7293 15.5925 20.6967 15.5374 20.6472 15.4795C20.5978 15.4217 20.5568 15.3882 20.5563 15.405ZM18.3519 15.4473C18.3519 15.4641 18.3657 15.4864 18.3825 15.4968C18.3994 15.5072 18.4131 15.5019 18.4131 15.4851C18.4131 15.4683 18.3994 15.446 18.3825 15.4356C18.3657 15.4252 18.3519 15.4304 18.3519 15.4473ZM16.6735 15.8072C16.7424 15.973 16.806 16.1156 16.8148 16.124C16.852 16.1596 16.7822 15.9442 16.7133 15.8109C16.6722 15.7313 16.6386 15.647 16.6386 15.6235C16.6386 15.6 16.6182 15.5639 16.5934 15.5432C16.5685 15.5226 16.6046 15.6414 16.6735 15.8072ZM23.0331 15.818C23.0331 15.8349 23.0477 15.8486 23.0655 15.8486C23.0833 15.8486 23.0894 15.8349 23.079 15.818C23.0686 15.8012 23.054 15.7874 23.0466 15.7874C23.0392 15.7874 23.0331 15.8012 23.0331 15.818ZM21.1974 16.0628C21.2154 16.0965 21.2435 16.124 21.2599 16.124C21.2764 16.124 21.2726 16.0967 21.2515 16.0628C21.2304 16.0291 21.2023 16.0016 21.1889 16.0016C21.1755 16.0016 21.1793 16.0291 21.1974 16.0628ZM21.6869 16.1411C21.6869 16.1673 21.7007 16.1803 21.7175 16.1699C21.7343 16.1595 21.7481 16.138 21.7481 16.1222C21.7481 16.1063 21.7343 16.0934 21.7175 16.0934C21.7007 16.0934 21.6869 16.1149 21.6869 16.1411ZM16.8527 16.1834C16.8527 16.216 16.8645 16.25 16.8789 16.2589C16.8933 16.2678 16.8986 16.2411 16.8907 16.1996C16.8734 16.1093 16.8527 16.1005 16.8527 16.1834ZM23.0178 16.1852C23.0282 16.202 23.0428 16.2158 23.0502 16.2158C23.0576 16.2158 23.0637 16.202 23.0637 16.1852C23.0637 16.1684 23.0491 16.1546 23.0313 16.1546C23.0135 16.1546 23.0074 16.1684 23.0178 16.1852ZM18.8432 16.2984C18.8422 16.3185 18.9108 16.408 18.9956 16.4972C19.0994 16.6065 19.2095 16.7791 19.3331 17.0266C19.434 17.2285 19.508 17.3593 19.4976 17.3172C19.4556 17.1482 19.2038 16.6746 19.095 16.56C19.0313 16.493 18.949 16.3984 18.912 16.3499C18.8751 16.3014 18.8441 16.2782 18.8432 16.2984ZM19.6374 16.3407C19.6376 16.3645 19.699 16.5116 19.7739 16.6675C19.8488 16.8233 19.933 17.023 19.9611 17.1111C19.9891 17.1992 20.0564 17.3677 20.1106 17.4855C20.1648 17.6033 20.2327 17.8098 20.2615 17.9444C20.3491 18.3554 20.377 18.4466 20.4269 18.4869C20.4668 18.5193 20.4703 18.5183 20.4479 18.4812C20.4331 18.4566 20.4176 18.4016 20.4133 18.3588C20.3817 18.0365 20.3571 17.909 20.2772 17.6521C20.2272 17.4913 20.0682 17.1264 19.9239 16.8413C19.6421 16.2846 19.6368 16.2752 19.6374 16.3407ZM16.92 16.3994C16.9193 16.4246 16.937 16.5416 16.9593 16.6594C16.9853 16.7964 16.9998 16.835 16.9998 16.7665C16.9998 16.6628 16.9224 16.3069 16.92 16.3994ZM23.6757 16.522C23.7057 16.6266 23.9071 16.9689 23.9567 16.9995C23.9989 17.0256 23.9928 17.0111 23.8288 16.6949C23.6887 16.4249 23.6283 16.3566 23.6757 16.522ZM18.4437 16.65C18.4436 16.9327 18.3608 17.3118 18.2602 17.4901C18.1814 17.6298 18.1744 17.658 18.2147 17.6735C18.3208 17.7142 18.4738 17.4357 18.4324 17.2774C18.4236 17.2436 18.4363 17.1395 18.4606 17.046C18.5115 16.8509 18.5195 16.5344 18.4743 16.5064C18.4554 16.4947 18.4437 16.5495 18.4437 16.65ZM19.5318 16.6225C19.5433 16.6527 19.5604 16.6696 19.5699 16.6602C19.5793 16.6508 19.5699 16.6261 19.549 16.6054C19.5187 16.5754 19.5153 16.5789 19.5318 16.6225ZM24.1503 16.6288C24.1618 16.6625 24.1913 16.7589 24.2159 16.843C24.2406 16.9271 24.2795 17.0373 24.3023 17.0878C24.3252 17.1382 24.38 17.2756 24.4241 17.3931C24.4682 17.5106 24.5302 17.6345 24.5619 17.6685C24.5936 17.7025 24.6573 17.8058 24.7035 17.8981C24.8199 18.1306 24.8298 18.0465 24.7183 17.7724C24.4232 17.0472 24.2864 16.7563 24.1804 16.6288L24.1296 16.5676L24.1503 16.6288ZM24.6241 16.9328C24.6241 16.957 24.7357 17.1945 24.872 17.4606C25.0084 17.7267 25.1446 18.0133 25.1746 18.0974C25.2735 18.3743 25.5261 18.8665 25.5355 18.8008C25.5541 18.6709 25.0021 17.3982 24.7561 17.0036C24.6828 16.8861 24.6241 16.8546 24.6241 16.9328ZM23.4955 17.0036C23.5301 17.1074 23.5532 17.1312 23.5532 17.063C23.5532 17.041 23.5328 16.9962 23.5078 16.9636C23.4662 16.9092 23.4651 16.9127 23.4955 17.0036ZM17.0117 17.0878C17.0123 17.1382 17.0192 17.1552 17.0269 17.1254C17.0347 17.0957 17.0342 17.0543 17.0258 17.0336C17.0174 17.0129 17.0111 17.0373 17.0117 17.0878ZM21.7787 17.0638C21.7787 17.0834 21.7909 17.107 21.8058 17.1162C21.8207 17.1254 21.8419 17.1808 21.8529 17.2393C21.8639 17.2978 21.8867 17.3542 21.9036 17.3647C21.939 17.3866 22.0234 17.3253 22.0234 17.2778C22.0234 17.2602 22.0154 17.2539 22.0056 17.2637C21.9854 17.2839 21.9072 17.2117 21.8304 17.102C21.8019 17.0614 21.7787 17.0443 21.7787 17.0638ZM23.6859 17.4276C23.6953 17.4798 23.7668 17.6519 23.8449 17.81C23.9231 17.9681 23.991 18.1456 23.9959 18.2045C24.0008 18.2634 24.0328 18.3804 24.067 18.4646C24.1012 18.5487 24.1648 18.7136 24.2083 18.8309L24.2875 19.0442L24.211 19.1151C24.1283 19.1919 24.1226 19.2091 24.1602 19.2684C24.1791 19.2982 24.1983 19.2926 24.2414 19.245C24.2724 19.2108 24.3196 19.1896 24.3462 19.198C24.4128 19.2189 24.5174 19.0432 24.4531 19.0185C24.4294 19.0094 24.4099 18.989 24.4099 18.9732C24.4099 18.9342 24.5245 18.9666 24.5423 19.0107C24.6781 19.3483 24.6864 19.3756 24.6413 19.3381C24.5997 19.3036 24.5981 19.3101 24.6276 19.3945C24.6782 19.54 24.8631 19.6648 24.9117 19.5863C24.9204 19.5723 24.8875 19.4763 24.8386 19.373C24.7898 19.2697 24.6923 19.023 24.6219 18.8249C24.4412 18.3157 24.4308 18.2885 24.2735 17.9142C24.1371 17.5895 24.0734 17.4757 24.0734 17.5569C24.0734 17.6027 24.1851 17.94 24.2423 18.0668C24.3167 18.232 24.3465 18.3835 24.3076 18.3995C24.2827 18.4097 24.2848 18.4228 24.3148 18.4438C24.3382 18.4601 24.388 18.5703 24.4255 18.6887C24.4908 18.8945 24.4913 18.9036 24.4365 18.8995C24.4051 18.8971 24.3793 18.8852 24.3793 18.8729C24.3793 18.8607 24.3244 18.734 24.2574 18.5915C24.1903 18.449 24.0885 18.2176 24.0311 18.0773C23.8768 17.6997 23.7695 17.4677 23.7162 17.3961C23.6705 17.3348 23.6694 17.3359 23.6859 17.4276ZM20.006 17.432C20.0098 17.4787 20.1521 17.7596 20.1546 17.7252C20.1577 17.6804 20.0427 17.409 20.0205 17.409C20.0115 17.409 20.005 17.4193 20.006 17.432ZM18.6477 17.5518C18.6365 17.563 18.6273 17.5864 18.6273 17.6038C18.6273 17.623 18.6416 17.6212 18.6635 17.5992C18.6834 17.5793 18.6926 17.5559 18.6839 17.5472C18.6752 17.5385 18.6589 17.5406 18.6477 17.5518ZM17.0134 17.6691C17.0138 17.7364 17.02 17.7603 17.0274 17.7223C17.0347 17.6842 17.0344 17.6291 17.0267 17.5999C17.0191 17.5706 17.0131 17.6018 17.0134 17.6691ZM17.5111 17.7532C17.4431 17.9968 17.4086 18.0625 17.2177 18.3115C17.0504 18.5298 17.0393 18.5867 17.184 18.4837C17.342 18.3711 17.4578 18.2133 17.5051 18.046C17.5548 17.8701 17.6016 17.562 17.5787 17.562C17.5709 17.562 17.5405 17.6481 17.5111 17.7532ZM22.2835 17.6232C22.2731 17.64 22.2792 17.6538 22.297 17.6538C22.3148 17.6538 22.3294 17.64 22.3294 17.6232C22.3294 17.6064 22.3233 17.5926 22.3159 17.5926C22.3085 17.5926 22.2939 17.6064 22.2835 17.6232ZM23.4486 17.8883C23.4598 17.936 23.5349 18.1127 23.6157 18.281C23.6964 18.4493 23.7718 18.6351 23.7833 18.694C23.8274 18.9213 23.9758 19.3595 24.0736 19.5513C24.1074 19.6174 24.1785 19.721 24.2317 19.7816C24.3102 19.871 24.3333 19.8831 24.3542 19.8458C24.3814 19.7972 24.3428 19.6827 24.2548 19.5507C24.2267 19.5087 24.1943 19.4435 24.1826 19.406C24.1709 19.3685 24.1167 19.2636 24.0621 19.1729C24.0075 19.0822 23.9178 18.8742 23.8628 18.7108C23.8078 18.5473 23.7254 18.3493 23.6796 18.2708C23.6338 18.1923 23.5718 18.0628 23.5418 17.983C23.4796 17.8177 23.4174 17.7545 23.4486 17.8883ZM18.2158 17.9456C18.1894 18.0087 18.1464 18.1238 18.1203 18.2013C18.066 18.3626 17.933 18.6096 17.7809 18.8317L17.6761 18.9847L17.7923 18.8593C17.9445 18.695 18.1596 18.3007 18.232 18.0535C18.2971 17.8314 18.2881 17.7723 18.2158 17.9456ZM24.6098 18.0439C24.6224 18.0733 24.6594 18.1938 24.6921 18.3116C24.7248 18.4294 24.7768 18.5808 24.8075 18.6481C24.8382 18.7155 24.9105 18.8738 24.9681 19C25.0888 19.2643 25.2158 19.4283 25.2999 19.4283C25.3321 19.4283 25.3584 19.4209 25.3584 19.4118C25.3584 19.4027 25.3012 19.2891 25.2314 19.1594C25.0653 18.8511 25.0867 18.8938 24.8568 18.411C24.7466 18.1797 24.6408 17.9903 24.6217 17.9903C24.6003 17.9903 24.5957 18.0109 24.6098 18.0439ZM25.389 18.0659C25.389 18.0738 25.4184 18.1366 25.4543 18.2055C25.497 18.2875 25.53 18.3205 25.5496 18.3009C25.5692 18.2813 25.5506 18.2329 25.496 18.1612C25.417 18.0577 25.389 18.0327 25.389 18.0659ZM24.8253 18.1891C24.844 18.2849 24.8603 18.3153 24.8813 18.2938C24.8882 18.2867 24.8743 18.2397 24.8506 18.1892L24.8073 18.0974L24.8253 18.1891ZM20.0523 18.4252C20.0605 18.6646 20.1249 18.8839 20.1921 18.9018C20.2175 18.9086 20.2217 18.9031 20.203 18.8876C20.1862 18.8737 20.1677 18.8006 20.1619 18.7252C20.1561 18.6499 20.1312 18.5491 20.1065 18.5014C20.0818 18.4536 20.0677 18.3914 20.0752 18.3631C20.0848 18.3268 20.0898 18.3319 20.0924 18.3804C20.0943 18.4183 20.1087 18.4493 20.1244 18.4493C20.1418 18.4493 20.142 18.4115 20.1249 18.3519C20.0732 18.1715 20.0446 18.2003 20.0523 18.4252ZM25.0362 18.3893C25.0823 18.5427 25.2639 18.8327 25.3325 18.8623C25.3715 18.8791 25.4546 18.9824 25.5172 19.0918C25.6842 19.3836 25.7603 19.4906 25.7885 19.4731C25.844 19.4388 25.6169 18.9882 25.5559 19.0116C25.5366 19.019 25.4911 18.9678 25.4547 18.8978C25.3318 18.6616 25.1591 18.4106 25.0862 18.3621C25.0155 18.3152 25.0142 18.3159 25.0362 18.3893ZM23.3391 18.4287C23.3391 18.4568 23.3586 18.4799 23.3824 18.4799C23.4063 18.4799 23.4319 18.4971 23.4394 18.5181C23.4469 18.5392 23.4618 18.5484 23.4724 18.5386C23.4831 18.5289 23.4574 18.4886 23.4154 18.4491C23.3522 18.3897 23.3391 18.3862 23.3391 18.4287ZM24.6547 18.5429C24.6547 18.5607 24.6685 18.5668 24.6853 18.5564C24.7021 18.546 24.7159 18.5314 24.7159 18.524C24.7159 18.5165 24.7021 18.5105 24.6853 18.5105C24.6685 18.5105 24.6547 18.5251 24.6547 18.5429ZM20.2407 18.6047C20.2515 18.6461 20.2653 18.66 20.273 18.637C20.2803 18.615 20.2718 18.5824 20.254 18.5646C20.2313 18.5419 20.2273 18.5538 20.2407 18.6047ZM23.278 18.5793C23.2781 18.6219 23.3905 18.8164 23.4149 18.8164C23.4429 18.8164 23.4126 18.6941 23.3754 18.6569C23.3554 18.6369 23.3391 18.6027 23.3391 18.5808C23.3391 18.559 23.3253 18.5411 23.3085 18.5411C23.2916 18.5411 23.2779 18.5583 23.278 18.5793ZM19.2241 18.6938C19.2138 18.7105 19.2194 18.7483 19.2366 18.7779C19.2635 18.8241 19.2681 18.8198 19.2689 18.7476C19.2698 18.6596 19.2557 18.6426 19.2241 18.6938ZM17.4417 18.858C17.3641 18.8965 17.3465 18.9555 17.4213 18.9268C17.4479 18.9166 17.4808 18.9082 17.4945 18.9082C17.5081 18.9082 17.5272 18.8876 17.5369 18.8623C17.5569 18.8103 17.5397 18.8095 17.4417 18.858ZM19.3004 18.8452C19.3004 18.8611 19.314 18.8824 19.3307 18.8927C19.348 18.9034 19.3531 18.8911 19.3427 18.8639C19.3224 18.8109 19.3004 18.8012 19.3004 18.8452ZM25.5573 18.9388C25.5677 18.9556 25.5822 18.9694 25.5897 18.9694C25.5971 18.9694 25.6032 18.9556 25.6032 18.9388C25.6032 18.922 25.5886 18.9082 25.5708 18.9082C25.553 18.9082 25.5469 18.922 25.5573 18.9388ZM17.1277 18.9849C17.0859 19.0073 17.0515 19.0371 17.0514 19.0511C17.0513 19.065 16.9983 19.1316 16.9335 19.1989C16.8687 19.2662 16.7916 19.3763 16.7621 19.4436C16.7133 19.5554 16.7127 19.5746 16.7558 19.6655C16.8007 19.7602 16.8945 19.8071 16.8783 19.7267C16.8577 19.6239 17.058 19.2259 17.1909 19.1056C17.3016 19.0054 17.2551 18.9167 17.1277 18.9849ZM25.7255 18.9496C25.7255 18.9568 25.7739 19.0158 25.8331 19.0808C25.9293 19.1865 25.9576 19.1512 25.8686 19.0366C25.836 18.9945 25.7255 18.9274 25.7255 18.9496ZM17.113 19.0303C17.1023 19.0476 17.1146 19.0527 17.1418 19.0423C17.1948 19.0219 17.2045 19 17.1605 19C17.1447 19 17.1233 19.0136 17.113 19.0303ZM16.761 19.063C16.761 19.0808 16.7747 19.0869 16.7916 19.0765C16.8084 19.0661 16.8221 19.0515 16.8221 19.0441C16.8221 19.0367 16.8084 19.0306 16.7916 19.0306C16.7747 19.0306 16.761 19.0452 16.761 19.063ZM21.6568 19.0841C21.657 19.0968 21.6706 19.1277 21.6869 19.153C21.7109 19.1901 21.7166 19.1857 21.717 19.13C21.7173 19.0922 21.7037 19.0612 21.6869 19.0612C21.6701 19.0612 21.6565 19.0715 21.6568 19.0841ZM23.6469 19.2803C23.6803 19.4038 23.7192 19.5324 23.7333 19.566C23.7474 19.5997 23.7815 19.6793 23.8091 19.743C23.8366 19.8067 23.8592 19.8715 23.8592 19.8871C23.8592 19.9153 23.6222 19.9955 23.5739 19.9837C23.56 19.9803 23.5569 19.9908 23.5669 20.007C23.5769 20.0232 23.5609 20.0501 23.5312 20.0667C23.5015 20.0833 23.4868 20.1064 23.4985 20.1181C23.5101 20.1298 23.6064 20.0917 23.7124 20.0335C23.8184 19.9754 23.9223 19.9336 23.9433 19.9407C24.0014 19.9602 23.9898 19.844 23.9173 19.6804C23.882 19.6007 23.8415 19.5079 23.8272 19.4742C23.7181 19.2162 23.6726 19.1274 23.6324 19.094C23.5943 19.0624 23.5968 19.095 23.6469 19.2803ZM24.5323 19.2106C24.5323 19.2274 24.5461 19.2497 24.5629 19.2601C24.5797 19.2705 24.5935 19.2652 24.5935 19.2484C24.5935 19.2315 24.5797 19.2093 24.5629 19.1989C24.5461 19.1885 24.5323 19.1937 24.5323 19.2106ZM22.7424 19.3977C22.7529 19.4146 22.7674 19.4283 22.7749 19.4283C22.7823 19.4283 22.7883 19.4146 22.7883 19.3977C22.7883 19.3809 22.7737 19.3671 22.7559 19.3671C22.7381 19.3671 22.732 19.3809 22.7424 19.3977ZM24.3124 19.388C24.3345 19.3969 24.3609 19.3958 24.371 19.3856C24.3812 19.3755 24.3631 19.3682 24.3309 19.3696C24.2953 19.371 24.288 19.3783 24.3124 19.388ZM21.6869 19.4283C21.6869 19.4452 21.7007 19.4589 21.7175 19.4589C21.7343 19.4589 21.7481 19.4452 21.7481 19.4283C21.7481 19.4115 21.7343 19.3977 21.7175 19.3977C21.7007 19.3977 21.6869 19.4115 21.6869 19.4283ZM21.7787 19.4278C21.7787 19.4449 21.8223 19.4589 21.8756 19.4589C21.987 19.4589 21.9829 19.4456 21.8628 19.4168C21.8129 19.4048 21.7787 19.4092 21.7787 19.4278ZM23.2643 19.6196C23.2484 19.7889 23.2534 19.8673 23.283 19.9147C23.3257 19.983 23.3916 19.9839 23.3754 19.9159C23.3701 19.8937 23.3605 19.7887 23.3539 19.6826C23.3354 19.3795 23.2898 19.3475 23.2643 19.6196ZM23.6297 19.8873C23.6401 19.9041 23.6547 19.9179 23.6621 19.9179C23.6696 19.9179 23.6756 19.9041 23.6756 19.8873C23.6756 19.8705 23.661 19.8567 23.6432 19.8567C23.6254 19.8567 23.6193 19.8705 23.6297 19.8873ZM18.1378 19.9449C18.1378 19.9617 18.1515 19.984 18.1684 19.9944C18.1852 20.0048 18.199 19.9995 18.199 19.9827C18.199 19.9658 18.1852 19.9436 18.1684 19.9332C18.1515 19.9228 18.1378 19.928 18.1378 19.9449ZM25.802 19.9791C25.7916 19.9959 25.7977 20.0097 25.8155 20.0097C25.8333 20.0097 25.8479 19.9959 25.8479 19.9791C25.8479 19.9622 25.8419 19.9485 25.8344 19.9485C25.827 19.9485 25.8124 19.9622 25.802 19.9791ZM18.2907 20.0224C18.2907 20.0547 18.3829 20.1419 18.3995 20.1253C18.4072 20.1176 18.3859 20.0863 18.3521 20.0557C18.3184 20.0252 18.2907 20.0102 18.2907 20.0224ZM23.0623 20.1139C23.0753 20.1491 23.1119 20.1819 23.1437 20.1868C23.1982 20.1952 23.1981 20.193 23.1402 20.1454C23.0801 20.096 23.0803 20.0955 23.1517 20.1169C23.1968 20.1304 23.2173 20.1271 23.2057 20.1084C23.1954 20.0918 23.1536 20.0718 23.1128 20.064C23.0483 20.0516 23.0417 20.0582 23.0623 20.1139ZM16.805 20.1656C16.7519 20.2515 16.7528 20.6517 16.8064 20.8434C16.866 21.0562 17.02 21.376 17.1416 21.5395C17.2522 21.688 17.5688 21.8761 17.7073 21.8756C17.8345 21.875 17.9587 21.8192 17.9786 21.7536C17.9892 21.7183 17.9837 21.7159 17.9547 21.7432C17.9269 21.7693 17.8914 21.77 17.8208 21.7459C17.768 21.7278 17.7178 21.7042 17.7094 21.6934C17.701 21.6827 17.6425 21.6425 17.5794 21.6042C17.5163 21.5659 17.4155 21.4745 17.3554 21.4011C17.2169 21.2321 16.9975 20.7358 16.9154 20.4058C16.8457 20.1259 16.8388 20.1109 16.805 20.1656ZM22.7883 20.1933C22.7883 20.2274 23.0482 20.3768 23.1074 20.3768C23.1339 20.3768 23.1555 20.3566 23.1555 20.332C23.1555 20.3074 23.1834 20.2722 23.2175 20.254C23.2517 20.2357 23.2713 20.2074 23.2612 20.191C23.2511 20.1747 23.2188 20.1911 23.1894 20.2274L23.1358 20.2935L22.9621 20.231C22.8665 20.1966 22.7883 20.1797 22.7883 20.1933ZM23.9204 20.2544C23.8928 20.2722 23.889 20.2843 23.9109 20.2846C23.931 20.2848 23.9559 20.2713 23.9663 20.2544C23.9898 20.2164 23.9792 20.2164 23.9204 20.2544ZM22.4753 20.2902C22.4931 20.308 22.5257 20.3165 22.5478 20.3091C22.5707 20.3015 22.5568 20.2876 22.5154 20.2768C22.4645 20.2635 22.4526 20.2675 22.4753 20.2902ZM21.1845 20.3441C21.0395 20.3733 20.9364 20.4101 20.9279 20.4356C20.918 20.4653 20.9295 20.4723 20.9654 20.4585C20.9938 20.4476 21.1093 20.424 21.222 20.406C21.4188 20.3747 21.5066 20.3377 21.4524 20.3089C21.4384 20.3014 21.3178 20.3172 21.1845 20.3441ZM23.6909 20.3622C23.6068 20.4027 23.5557 20.4363 23.5774 20.4369C23.6217 20.4381 23.8592 20.3225 23.8592 20.2997C23.8592 20.2804 23.8664 20.2777 23.6909 20.3622ZM22.8706 20.36C22.8446 20.3861 22.8009 20.4074 22.7734 20.4074C22.7437 20.4074 22.7323 20.4216 22.7452 20.4424C22.76 20.4664 22.7428 20.4729 22.691 20.463C22.6277 20.4509 22.6172 20.4589 22.6268 20.5121C22.635 20.5574 22.5894 20.6234 22.4686 20.741C22.3752 20.8319 22.2988 20.9248 22.2988 20.9475C22.2988 20.9702 22.2812 20.9887 22.2596 20.9887C22.2381 20.9887 22.2044 21.0311 22.1849 21.083C22.1531 21.1672 22.1369 21.1767 22.0328 21.1718C21.8732 21.1644 21.8445 21.172 21.9164 21.2029C21.9747 21.228 21.9744 21.2293 21.9087 21.2314C21.8709 21.2325 21.8399 21.2189 21.8399 21.2011C21.8399 21.1833 21.8261 21.1772 21.8093 21.1876C21.7552 21.221 21.7766 21.2641 21.8475 21.2646C22.0172 21.2657 22.0107 21.3142 21.8149 21.5057C21.6324 21.6844 21.5877 21.7665 21.6601 21.7906C21.7093 21.807 21.5544 22.1006 21.467 22.1565C21.3606 22.2244 21.1456 22.3036 21.1246 22.2826C21.1144 22.2724 21.1201 22.2472 21.1372 22.2266C21.159 22.2004 21.1558 22.1843 21.1269 22.1732C21.0709 22.1517 21.0833 21.8309 21.1501 21.5743C21.178 21.4673 21.1944 21.3733 21.1866 21.3655C21.1677 21.3466 20.989 21.5438 20.8834 21.7001C20.7939 21.8325 20.6772 22.1685 20.6772 22.2938C20.6772 22.4589 20.8328 22.6409 20.974 22.6409C21.0119 22.6409 21.1211 22.6099 21.2166 22.5721C21.4147 22.4935 21.7412 22.1983 21.7979 22.0464C21.8172 21.9948 21.854 21.8974 21.8796 21.8301C21.9052 21.7628 21.9495 21.6415 21.9781 21.5605C22.0066 21.4795 22.0801 21.354 22.1414 21.2814C22.3229 21.0668 22.5294 20.7906 22.513 20.7845C22.5046 20.7814 22.5994 20.6811 22.7237 20.5616C22.848 20.4422 22.9426 20.3373 22.9339 20.3286C22.9251 20.3198 22.8967 20.334 22.8706 20.36ZM19.8191 20.6854C19.8003 20.7205 19.7907 20.755 19.7978 20.762C19.8048 20.7691 19.8263 20.7404 19.8455 20.6982C19.8877 20.6057 19.8671 20.5957 19.8191 20.6854ZM17.2352 20.744C17.2248 20.7608 17.2309 20.7746 17.2487 20.7746C17.2665 20.7746 17.2811 20.7608 17.2811 20.744C17.2811 20.7271 17.275 20.7134 17.2676 20.7134C17.2602 20.7134 17.2456 20.7271 17.2352 20.744ZM27.5116 20.8523C27.5237 20.8838 27.5419 20.9701 27.5521 21.0441C27.5668 21.152 27.5764 21.1683 27.6002 21.1258C27.634 21.0654 27.5819 20.8521 27.5246 20.8167C27.5008 20.802 27.4966 20.8132 27.5116 20.8523ZM18.5049 20.8979C18.5049 20.9142 18.5256 20.9275 18.5508 20.9275C18.5761 20.9275 18.5967 20.9221 18.5967 20.9155C18.5967 20.9089 18.5761 20.8956 18.5508 20.8859C18.5256 20.8762 18.5049 20.8816 18.5049 20.8979ZM19.7006 20.976C19.702 21.0116 19.7093 21.0189 19.7191 20.9945C19.7279 20.9724 19.7268 20.946 19.7166 20.9358C19.7065 20.9257 19.6993 20.9437 19.7006 20.976ZM18.7907 21.0429C18.7659 21.0586 18.7774 21.0913 18.8289 21.1512C18.8695 21.1983 18.9027 21.2214 18.9027 21.2024C18.9027 21.1834 18.8819 21.1472 18.8565 21.1218C18.8311 21.0964 18.8181 21.0629 18.8277 21.0474C18.8485 21.0138 18.8384 21.0125 18.7907 21.0429ZM19.67 21.1595C19.6714 21.1952 19.6787 21.2024 19.6885 21.1781C19.6973 21.156 19.6962 21.1296 19.686 21.1194C19.6759 21.1092 19.6687 21.1273 19.67 21.1595ZM20.3888 21.5012C20.2292 21.745 20.2116 22.0851 20.3448 22.3519C20.4284 22.5193 20.4531 22.5102 20.384 22.3375C20.3132 22.1606 20.3468 21.7668 20.4503 21.5599C20.5341 21.3924 20.5356 21.3865 20.4941 21.3865C20.4775 21.3865 20.4301 21.4381 20.3888 21.5012ZM18.8745 21.4655C18.876 21.5011 18.8832 21.5084 18.893 21.484C18.9018 21.4619 18.9007 21.4355 18.8906 21.4254C18.8804 21.4152 18.8732 21.4333 18.8745 21.4655ZM22.6354 21.8607C22.6137 21.8868 22.6029 21.915 22.6113 21.9234C22.6198 21.9318 22.6443 21.9174 22.666 21.8913C22.6876 21.8652 22.6984 21.8371 22.69 21.8286C22.6816 21.8202 22.657 21.8346 22.6354 21.8607ZM20.4172 21.876C20.4276 21.8928 20.4421 21.9066 20.4496 21.9066C20.457 21.9066 20.4631 21.8928 20.4631 21.876C20.4631 21.8592 20.4485 21.8454 20.4307 21.8454C20.4128 21.8454 20.4068 21.8592 20.4172 21.876ZM19.3505 21.9219C19.3602 21.9471 19.3736 21.9678 19.3802 21.9678C19.3868 21.9678 19.3922 21.9471 19.3922 21.9219C19.3922 21.8967 19.3789 21.876 19.3626 21.876C19.3463 21.876 19.3409 21.8967 19.3505 21.9219ZM20.4751 22.0465C20.4639 22.091 20.4703 22.1403 20.4898 22.1597C20.5153 22.1853 20.5242 22.165 20.5242 22.081C20.5242 21.9492 20.5032 21.9344 20.4751 22.0465ZM22.054 22.3062C22.054 22.324 22.0678 22.3301 22.0846 22.3197C22.1015 22.3092 22.1152 22.2947 22.1152 22.2872C22.1152 22.2798 22.1015 22.2738 22.0846 22.2738C22.0678 22.2738 22.054 22.2884 22.054 22.3062ZM17.8165 22.7939C17.8269 22.8107 17.8415 22.8245 17.8489 22.8245C17.8564 22.8245 17.8624 22.8107 17.8624 22.7939C17.8624 22.7771 17.8478 22.7633 17.83 22.7633C17.8122 22.7633 17.8061 22.7771 17.8165 22.7939Z" fill="black"/>
</svg>
