<svg width="442" height="368" viewBox="0 0 442 368" fill="none" xmlns="http://www.w3.org/2000/svg">
<path fill-rule="evenodd" clip-rule="evenodd" d="M78.5653 43.219C77.2247 43.3142 76.5006 43.5546 76.3471 43.9563C75.945 45.0085 76.4952 45.2569 79.2289 45.2569H81.9051V44.096C81.9051 43.221 81.7389 42.9528 81.2304 43.0066C80.8591 43.0461 79.66 43.1416 78.5653 43.219ZM74.0009 43.7036C73.3648 43.8754 72.3557 44.1269 71.7589 44.2631C70.9137 44.4555 70.7005 44.7001 70.7953 45.3672C70.8813 45.9744 71.1416 46.1915 71.6875 46.1114C72.1117 46.0495 73.1959 45.8962 74.0973 45.7709C75.5918 45.5634 75.736 45.4454 75.736 44.4326C75.736 43.2376 75.7333 43.2365 74.0009 43.7036ZM82.6362 43.9512C82.0497 44.6602 82.4858 45.6439 83.3869 45.6439C83.7909 45.6439 84.8686 45.9086 85.7816 46.2318C87.5263 46.8498 88.055 46.6191 88.0685 45.2345C88.0769 44.3475 83.2511 43.2074 82.6362 43.9512ZM67.09 45.9578C65.0461 47.0781 64.7573 47.4624 65.3052 48.332C65.6021 48.8037 66 48.7236 67.8287 47.8246C69.5665 46.9705 69.976 46.5948 69.88 45.9407C69.7088 44.7771 69.2384 44.7802 67.09 45.9578ZM88.8261 45.8606C88.2053 46.6114 88.6507 47.5789 89.6169 47.5789C90.0545 47.5789 91.013 47.8308 91.7472 48.1385C92.998 48.6632 93.1082 48.6485 93.5054 47.9036C94.0432 46.8951 93.7417 46.6242 91.2791 45.9005C89.5575 45.3947 89.2159 45.3893 88.8261 45.8606ZM94.5896 47.8196C94.0028 48.5297 94.3235 48.8145 96.6967 49.6922C98.2652 50.2719 98.6269 50.2983 98.9076 49.8528C99.4559 48.9829 99.1231 48.6408 97.038 47.9295C95.3071 47.3389 94.9987 47.325 94.5896 47.8196ZM61.7175 49.2778C60.442 50.3977 59.8899 51.1597 59.987 51.6651C60.2257 52.9104 61.1862 52.6686 63.1942 50.8567C65.0981 49.1388 65.1062 49.1218 64.3509 48.3799C63.5983 47.64 63.5717 47.6489 61.7175 49.2778ZM99.5129 49.7719C98.9797 50.3068 99.3032 50.8973 100.624 51.8002C101.652 52.5029 102.096 52.6225 102.431 52.2862C102.766 51.9503 102.602 51.5548 101.764 50.6775C100.669 49.5297 100.016 49.2669 99.5129 49.7719ZM57.263 53.9638C55.9405 55.7219 55.7165 56.2432 56.0901 56.6952C56.847 57.6104 57.3455 57.3554 58.8955 55.2606C60.3464 53.3001 60.358 53.2568 59.6335 52.5296C58.909 51.8025 58.8716 51.8253 57.263 53.9638ZM102.726 52.9832C102.726 53.1883 103.086 53.5501 103.526 53.7866C104.259 54.1798 104.29 54.148 103.898 53.4131C103.458 52.5873 102.726 52.3187 102.726 52.9832ZM53.7913 59.4436C52.8933 61.1077 52.7125 61.7586 53.0383 62.1525C53.8222 63.1007 54.4603 62.6928 55.6536 60.4815C56.5516 58.8175 56.7324 58.1665 56.4066 57.7726C55.6228 56.8245 54.9847 57.2323 53.7913 59.4436ZM51.4891 63.5422C51.3117 64.0213 50.9335 65.3382 50.6482 66.4694C50.2017 68.2418 50.2075 68.575 50.6913 68.8823C51.7848 69.5766 52.1295 69.2197 53.0048 66.4876C53.8634 63.8065 53.8684 63.7094 53.1721 63.1982C52.1793 62.4695 51.8623 62.5345 51.4891 63.5422ZM48.858 72.3594C48.1061 75.3435 48.1026 75.4836 48.7704 75.8423C50.1407 76.5784 50.5097 76.2556 51.1116 73.7975C51.4374 72.4674 51.8261 71.1052 51.9749 70.7704C52.1654 70.3436 51.9491 70.0262 51.2493 69.7062C50.7006 69.4554 50.1145 69.2503 49.9468 69.2503C49.7787 69.2503 49.2886 70.6493 48.858 72.3594ZM47.8555 76.9C47.3913 77.7378 46.3656 83.2218 46.5719 83.7621C46.7304 84.1769 47.1634 84.3526 47.8285 84.2721C48.7315 84.163 48.9231 83.8522 49.5732 81.4405C49.9746 79.9506 50.3432 78.4878 50.3921 78.1894C50.4862 77.6159 48.1238 76.4151 47.8555 76.9ZM45.34 88.1161C44.7555 91.9725 44.7563 91.9833 45.6338 92.4546C46.799 93.0808 47.5894 92.5475 47.5894 91.1354C47.5894 90.4469 47.8478 89.029 48.1635 87.9841C48.6883 86.2469 48.6821 86.043 48.0899 85.6007C47.7336 85.3348 47.0716 85.1169 46.6186 85.1169C45.8875 85.1169 45.7441 85.454 45.34 88.1161ZM43.9018 96.9503C43.6046 99.6476 43.6335 100.441 44.0445 100.853C44.619 101.43 44.9309 101.479 45.8228 101.136C46.2581 100.968 46.4327 100.385 46.4327 99.1012C46.4327 98.1117 46.6047 96.7007 46.8144 95.9658C47.2521 94.4341 47.0546 94.1233 45.438 93.7987L44.2747 93.5653L43.9018 96.9503ZM316.232 94.246C315.712 94.7685 315.934 96.2204 316.68 97.1717C317.084 97.6867 317.602 98.8102 317.832 99.6678C318.344 101.575 319.486 102.704 321.692 103.486C325.704 104.906 327.334 103.734 324.363 101.564C323.247 100.749 322.446 99.6852 321.673 97.9936C321.068 96.6682 320.174 95.3211 319.685 94.9999C318.6 94.2859 316.623 93.8544 316.232 94.246ZM310.548 95.3722C310.284 95.6914 309.479 95.9526 308.759 95.9526C307.648 95.9526 307.356 96.1531 306.819 97.2831C305.861 99.2989 306.687 100.3 310.25 101.441C312.809 102.259 313.155 102.498 314.211 104.169C315.374 106.011 316.272 106.439 317.035 105.515C317.345 105.141 317.013 104.465 315.704 102.809C314.249 100.967 313.904 100.203 313.62 98.1879C313.193 95.1574 311.789 93.8706 310.548 95.3722ZM293.936 96.5722C293.134 97.5424 294.936 100.746 296.378 100.912C297.534 101.046 297.778 101.544 296.86 101.898C295.92 102.259 296.197 103.242 297.419 103.876C298.887 104.638 301.44 104.642 302.068 103.883C302.474 103.392 302.36 103.233 301.344 102.878C299.884 102.367 299.813 101.889 301.111 101.296C303.26 100.313 302.424 97.4104 299.716 96.4581C297.739 95.763 294.553 95.8257 293.936 96.5722ZM315.432 98.9197C314.853 99.5006 315.248 100.688 316.462 102.018C317.978 103.678 319.134 103.53 318.012 101.818C317.642 101.253 317.099 100.311 316.806 99.7258C316.272 98.6558 315.908 98.4422 315.432 98.9197ZM327.838 99.9193C328.535 101.052 328.839 102.045 329.644 105.821L329.892 106.982L330.63 106.068C332.505 103.749 330.549 98.6616 327.781 98.6616C327.094 98.6616 327.097 98.7138 327.838 99.9193ZM286.934 102.345C285.388 103.4 284.715 104.373 284.715 105.553C284.715 106.362 285.998 106.788 288.434 106.788C289.457 106.788 289.84 107 290.183 107.756C290.682 108.855 290.851 108.898 292.215 108.274C293.39 107.737 293.498 107.175 292.426 107.175C291.395 107.175 291.454 106.559 292.619 105.17C293.149 104.538 293.583 103.851 293.583 103.645C293.583 103.217 289.835 101.38 288.949 101.374C288.627 101.372 287.721 101.809 286.934 102.345ZM339.035 104.176C338.963 108.581 338.743 109.167 336.743 110.271C334.393 111.569 332.525 112.952 332.525 113.394C332.525 113.592 333.523 113.764 334.742 113.777C335.962 113.789 337.653 113.926 338.502 114.081C339.968 114.349 340.042 114.43 340.006 115.734C339.943 117.977 338.232 121.239 336.582 122.263C335.072 123.2 334.126 123.31 331.546 122.852C330.343 122.638 329.87 122.716 329.474 123.195C328.76 124.059 329.32 124.624 331.998 125.738L334.205 126.656L335.701 125.792L337.197 124.928L338.663 126.257C339.619 127.124 341.228 127.954 343.287 128.642C345.79 129.479 346.793 130.052 348.122 131.404C349.909 133.224 352.715 134.697 355.852 135.462C357.031 135.75 358.355 136.447 359.259 137.256C363.475 141.028 373.524 146.795 380.056 149.189C382.765 150.182 385.541 151.403 386.225 151.903C386.909 152.403 388.483 153.351 389.722 154.011C390.961 154.67 392.679 155.722 393.539 156.347C395.546 157.806 397.005 157.83 398 156.42C398.873 155.185 400 152.028 400 150.821C400 149.408 396.632 146.612 392.092 144.255C389.761 143.045 386.615 141.182 385.101 140.114C380.594 136.937 374.871 129.975 369.038 120.573C365.633 115.085 363.625 113.046 359.465 110.852C357.923 110.039 355.872 108.769 354.907 108.03L353.154 106.686L349.675 106.894C345.401 107.15 344.232 106.727 342.588 104.327C341.446 102.663 340.045 101.371 339.38 101.371C339.215 101.371 339.06 102.633 339.035 104.176ZM303.897 102.927C302.03 104.176 301.744 104.608 302.479 105.065C302.707 105.206 303.337 106.348 303.879 107.603C304.954 110.09 305.392 110.398 305.761 108.925C305.965 108.108 306.114 108.026 306.762 108.374C308.061 109.071 308.722 108.513 308.53 106.882C308.436 106.086 308.227 105.132 308.065 104.762C307.84 104.249 308.023 103.994 308.841 103.682C309.764 103.329 309.835 103.199 309.361 102.727C309.06 102.426 308.119 102.073 307.271 101.941C305.958 101.737 305.455 101.884 303.897 102.927ZM43.1419 105.463C42.8388 109.116 43.0397 109.63 44.6884 109.431C45.7275 109.305 45.7383 109.274 45.847 106.014C45.9616 102.573 45.7915 102.162 44.2504 102.15C43.4823 102.145 43.396 102.403 43.1419 105.463ZM309.561 104.254C308.678 105.606 309.159 106.594 311.053 107.32C313.095 108.103 313.49 108.106 313.782 107.341C314.219 106.199 312.134 103.305 310.875 103.305C310.493 103.305 309.901 103.732 309.561 104.254ZM318.517 105.724C318.229 106.416 317.706 107.221 317.355 107.513C316.225 108.453 316.662 108.723 319.32 108.728C322.246 108.732 325.163 109.494 326.945 110.719C327.603 111.172 328.651 112.519 329.273 113.713C330.064 115.229 330.666 115.92 331.272 116.006C332.368 116.162 332.355 115.89 331.171 113.811C330.644 112.885 330.212 111.969 330.212 111.775C330.212 111.582 330.863 111.527 331.658 111.654C332.865 111.847 333.25 111.729 333.99 110.937L334.876 109.988L333.852 108.767C332.361 106.988 331.637 106.695 330.367 107.356C329.4 107.86 329.249 107.846 328.81 107.218C328.161 106.288 325.617 105.383 322.234 104.879C320.709 104.652 319.367 104.466 319.251 104.466C319.135 104.466 318.805 105.032 318.517 105.724ZM296.86 105.884C296.224 106.22 295.236 106.997 294.665 107.61C294.094 108.222 293.367 108.723 293.049 108.723C291.739 108.723 292.132 109.492 293.651 109.902C295.022 110.273 295.457 110.241 296.362 109.705C297.494 109.033 297.857 109.12 299.27 110.396C299.882 110.95 300.137 111.616 300.137 112.661C300.137 114.644 301.05 114.628 303.012 112.611C304.253 111.335 304.421 110.983 304.02 110.497C303.755 110.176 303.207 109.809 302.802 109.68C302.246 109.503 302.065 109.082 302.065 107.965C302.065 106.599 301.947 106.438 300.515 105.863C298.628 105.105 298.328 105.107 296.86 105.884ZM296.51 110.601C296.196 111.111 298.332 114.908 298.935 114.912C299.576 114.916 299.294 112.471 298.549 111.57C297.87 110.749 296.747 110.216 296.51 110.601ZM43.2063 114.044C43.4746 118.452 43.4827 118.471 44.9841 118.326L46.2399 118.205L46.1015 114.722C45.9554 111.044 45.7676 110.674 44.0418 110.664L43 110.658L43.2063 114.044ZM290.97 111.261C290.498 111.592 290.113 112.044 290.113 112.265C290.113 112.487 289.419 113.459 288.57 114.426C285.729 117.666 286.769 118.375 290.766 115.924C292.365 114.943 293.922 114.141 294.228 114.141C294.984 114.141 296.405 117.467 296.126 118.583C295.875 119.583 294.79 120.189 294.562 119.456C294.481 119.193 294.306 118.326 294.174 117.527C293.851 115.579 293.17 115.632 289.267 117.908C286.919 119.278 285.85 120.176 285.035 121.467C282.75 125.082 284.079 125.622 287.48 122.461C288.74 121.291 290.029 120.333 290.344 120.333C290.659 120.333 291.77 121.134 292.812 122.113L294.708 123.893L295.89 122.022C297.94 118.778 298.237 116.04 296.835 113.318C295.599 110.92 292.834 109.95 290.97 111.261ZM284.891 111.766C284.246 112.161 283.248 113.044 282.674 113.729C280.91 115.834 281.556 118.405 283.712 117.862C284.818 117.583 287.72 114.399 288.043 113.11C288.56 111.041 287.096 110.416 284.891 111.766ZM311.435 113.164C311.555 113.904 312.192 115.182 312.85 116.004C313.507 116.825 314.14 118.092 314.255 118.819C314.37 119.545 313.93 123.915 313.277 128.53C312.625 133.146 312.096 137.238 312.102 137.625C312.128 139.19 312.791 137.005 314.001 131.362C316.036 121.877 316.149 121.569 318.492 119.161C319.636 117.984 320.573 116.765 320.572 116.452C320.572 116.096 319.203 115.323 316.922 114.39C314.914 113.568 313.071 112.654 312.827 112.358C312.582 112.062 312.119 111.819 311.8 111.819C311.351 111.819 311.268 112.127 311.435 113.164ZM322.886 113C322.886 113.992 323.876 115.956 324.478 116.157C325.369 116.455 322.881 121.581 319.952 125.48C316.784 129.698 316.131 131.383 318.947 128.073C322.162 124.294 326.906 119.503 327.995 118.933C328.76 118.532 329.054 118.085 329.049 117.324C329.042 115.951 328.74 115.559 327.216 114.94C326.522 114.658 325.536 113.928 325.024 113.317C323.931 112.013 322.886 111.858 322.886 113ZM352.507 112.894C351.165 113.783 350.23 115.007 348.894 117.624C346.946 121.439 347.637 124.911 351.092 128.673C352.798 130.53 356.008 132.33 357.616 132.33C358.738 132.33 359.109 131.704 359.908 128.46C360.144 127.502 360.848 125.991 361.473 125.102C362.941 123.009 363.202 121.603 362.454 119.807C361.166 116.711 356.418 112.203 354.451 112.209C353.95 112.21 353.075 112.519 352.507 112.894ZM342.008 115.786C341.24 116.978 339.769 122.945 340.034 123.786C340.435 125.054 342.051 126.25 343.029 126.004C344.677 125.589 346.406 121.129 346.406 117.296C346.406 115.463 345.858 114.915 344.024 114.915C342.937 114.915 342.426 115.136 342.008 115.786ZM306.247 115.892C304.936 116.252 303.965 116.28 302.643 115.998C300.546 115.549 299.916 115.911 300.277 117.356C300.452 118.055 301.066 118.529 302.609 119.158C303.761 119.627 304.968 120.304 305.29 120.662C305.613 121.019 306.586 124.27 307.453 127.885C309.469 136.292 309.79 137.476 309.998 137.268C310.091 137.174 309.722 134.012 309.177 130.241C308.208 123.532 308.2 123.305 308.808 119.724C309.149 117.711 309.324 115.892 309.195 115.683C308.913 115.226 308.581 115.25 306.247 115.892ZM43.5313 120.43C43.6801 121.122 43.888 122.776 43.9936 124.106L44.1852 126.525H45.9323H47.6793L47.4125 123.913C46.9583 119.47 46.7682 119.193 44.1721 119.177C43.3447 119.172 43.2857 119.288 43.5313 120.43ZM281.374 119.828C280.173 120.063 278.8 123.169 279.56 123.931C279.889 124.261 281.102 123.583 283.081 121.963C284.38 120.901 284.633 120.507 284.287 120.089C283.859 119.571 283.054 119.499 281.374 119.828ZM245.945 121.675C245.638 122.413 245.387 123.419 245.387 123.911C245.387 124.403 245.049 125.095 244.636 125.45C243.867 126.11 243.965 127.362 244.917 129.07C245.27 129.703 249.099 131.151 250.45 131.163C251.186 131.17 251.543 130.077 251.55 127.796C251.557 125.846 250.911 125.364 248.291 125.364C246.145 125.364 245.827 124.823 246.694 122.646C247.419 120.829 247.465 120.333 246.909 120.333C246.686 120.333 246.253 120.937 245.945 121.675ZM258.034 121.784C257.488 122.369 256.747 123.434 256.387 124.15C255.77 125.377 255.644 125.438 254.222 125.21L252.712 124.968L252.708 126.617C252.706 127.524 252.602 128.886 252.477 129.644C252.259 130.964 252.338 131.082 254.368 132.485C256.134 133.706 256.616 133.88 257.268 133.529C259.469 132.347 260.207 129.767 259.103 127.115C258.629 125.976 258.629 125.515 259.099 123.742C259.992 120.373 259.755 119.938 258.034 121.784ZM264.354 121.211C264.13 121.481 263.649 122.893 263.285 124.349C262.908 125.855 262.231 127.42 261.716 127.978C261.217 128.518 260.809 129.358 260.809 129.846C260.809 131.224 260.184 132.55 259.025 133.628L257.965 134.615L259.024 135.019C260.905 135.737 262.984 135.915 263.879 135.434C264.944 134.862 266.349 131.779 266.059 130.651C265.94 130.191 265.318 129.517 264.676 129.155C263.871 128.701 263.508 128.2 263.508 127.545C263.508 126.692 264.5 123.165 265.237 121.397C265.563 120.613 264.954 120.484 264.354 121.211ZM287.583 123.934C286.021 125.353 285.787 125.749 286.003 126.613C286.178 127.312 286.653 127.757 287.538 128.05C288.871 128.492 290.848 130.333 291.631 131.862C291.881 132.35 292.224 134.44 292.394 136.506L292.704 140.263L292.758 135.507C292.805 131.349 292.717 130.618 292.058 129.702C291.643 129.125 291.253 128.15 291.19 127.535C291.093 126.582 291.259 126.354 292.312 125.987L293.547 125.557L292.183 123.913C291.433 123.008 290.504 122.268 290.118 122.268C289.732 122.268 288.591 123.018 287.583 123.934ZM274.437 123.641C273.95 124.913 274.614 127.446 275.628 128.188C276.723 128.989 276.853 129.639 276.145 130.778C275.783 131.36 275.779 131.642 276.127 131.992C276.475 132.341 277.076 132.291 278.704 131.777C281.547 130.879 282.401 131.178 282.401 133.07C282.401 135.317 284.621 136.744 285.834 135.277C286.451 134.531 286.451 128.58 285.833 127.833C285.127 126.979 283.354 126.138 282.261 126.138C281.738 126.138 280 125.441 278.399 124.59C275.165 122.87 274.768 122.775 274.437 123.641ZM298.306 123.709C296.845 123.891 296.719 124.388 297.893 125.342C298.717 126.012 298.724 126.106 298.278 130.242C297.55 136.989 297.8 138.125 298.781 132.523C299.265 129.756 299.851 126.709 300.083 125.751C300.621 123.525 300.619 123.417 300.041 123.491C299.776 123.525 298.995 123.623 298.306 123.709ZM327.361 124.815C326.598 126.812 327.489 128.072 330.861 129.765C331.96 130.317 333.393 131.337 334.045 132.033C335.461 133.543 336.767 136.82 336.767 138.864C336.767 139.996 336.957 140.424 337.59 140.707C338.051 140.913 338.69 141.828 339.043 142.787C339.427 143.831 340.045 144.681 340.629 144.968C341.156 145.227 342.915 146.042 344.538 146.781C347.421 148.092 347.544 148.206 349.889 151.74C356.398 161.547 361.341 167.858 367.028 173.621C372.458 179.123 376.087 181.043 377.802 179.322C378.577 178.544 378.573 177.771 377.79 177.139C370.26 171.063 359.968 157.71 354.133 146.448C351.682 141.717 350.152 139.618 346.988 136.647C342.863 132.775 337.067 129.217 331.465 127.118C329.056 126.215 328.67 125.941 328.67 125.137C328.67 124.086 327.728 123.855 327.361 124.815ZM235.937 126.143C235.805 126.358 236.247 127.501 236.921 128.683C237.865 130.339 238.291 130.767 238.778 130.55C239.126 130.395 240.321 130.085 241.435 129.861C243.704 129.405 243.958 128.847 242.797 126.875C242.158 125.788 242.036 125.751 239.157 125.751C237.519 125.751 236.07 125.927 235.937 126.143ZM295.511 126.912C294.98 127.082 293.993 127.239 293.316 127.26C291.34 127.322 291.172 128.712 293.037 129.565C293.562 129.805 294.123 130.361 294.285 130.8C294.447 131.239 294.283 134.052 293.92 137.051C293.218 142.852 292.895 148.409 293.241 148.756C293.356 148.872 293.666 147.269 293.931 145.195C294.319 142.149 296.365 131.406 297.321 127.396C297.545 126.457 297.206 126.367 295.511 126.912ZM230.639 127.52C230.055 127.838 229.573 128.31 229.567 128.569C229.561 128.828 230.118 130.108 230.805 131.413L232.054 133.784L231.009 135.16C229.806 136.743 229.724 137.185 230.574 137.513C232.055 138.083 233.015 137.711 234.539 135.974C237.196 132.944 237.483 130.06 235.356 127.769C234.413 126.752 232.258 126.639 230.639 127.52ZM44.2508 127.9C44.1243 128.231 44.2971 129.145 44.6348 129.932C44.9726 130.719 45.3593 132.176 45.4943 133.17L45.7399 134.977L47.1468 134.766C49.4421 134.421 49.5547 134.094 48.6204 130.492L47.7922 127.299H46.1362C44.9949 127.299 44.4093 127.486 44.2508 127.9ZM223.698 128.878C222.811 129.397 222.831 131.202 223.737 132.374C225.468 134.613 225.487 134.94 223.959 136.345L222.549 137.642L223.451 138.275C223.946 138.623 224.734 138.909 225.2 138.909C226.334 138.909 229.164 136.699 230.109 135.075L230.869 133.769L229.951 132.032C228.324 128.954 227.772 128.459 225.984 128.471C225.098 128.478 224.069 128.661 223.698 128.878ZM268.795 129.014C268.491 129.319 268.126 130.295 267.985 131.183C267.843 132.071 267.299 133.361 266.775 134.051C265.57 135.636 265.568 136.487 266.766 137.035C267.512 137.376 267.992 137.333 269.045 136.832C269.778 136.483 270.663 136.306 271.01 136.44C271.357 136.574 272.144 137.795 272.757 139.154C273.371 140.513 274.169 141.738 274.53 141.877C275.582 142.283 276.325 140.923 276.046 139.102C275.915 138.251 275.716 136.574 275.603 135.376C275.431 133.552 275.246 133.13 274.465 132.772C273.809 132.473 273.531 132.029 273.527 131.274C273.52 129.985 273.227 129.493 272.113 128.905C270.961 128.297 269.46 128.346 268.795 129.014ZM216.382 130.611C215.804 130.926 215.145 131.533 214.917 131.961C214.556 132.637 214.782 132.995 216.642 134.701C218.794 136.675 219.139 137.517 218.379 138.942C217.398 140.781 219.266 140.654 221.284 138.745C223.605 136.548 223.434 133.825 220.797 130.97C219.77 129.859 218.024 129.717 216.382 130.611ZM239.221 131.105C237.722 131.558 236.86 133.851 237.529 135.602C237.96 136.729 239.915 137.373 244.713 137.967C254.868 139.227 261.822 143.158 268.249 151.274C270.388 153.975 270.518 154.257 270.316 155.741C270.197 156.613 269.995 157.599 269.868 157.933C269.669 158.452 270.19 158.566 273.464 158.725C278.239 158.955 279.835 159.755 280.51 162.252C280.75 163.141 281.007 164.083 281.08 164.344C281.153 164.605 282.003 165.191 282.968 165.646C284.166 166.211 284.782 166.766 284.911 167.397C285.015 167.905 285.212 168.799 285.349 169.384L285.598 170.448L285.939 169.094C286.127 168.349 286.375 165.127 286.49 161.934C286.685 156.532 286.645 156.042 285.903 154.868C284.912 153.298 282.959 152.071 281.437 152.063C280.801 152.06 279.543 151.634 278.642 151.117C276.275 149.758 270.125 144.944 265.385 140.74C261.739 137.505 260.759 136.866 256.517 134.949C249.566 131.809 247.239 131.096 243.459 130.945C241.656 130.874 239.749 130.946 239.221 131.105ZM278.05 133.343C277.714 133.681 277.688 135.524 278.008 136.361C278.345 137.243 279.981 137.124 280.483 136.181C280.716 135.744 280.852 134.917 280.787 134.342C280.689 133.494 280.446 133.276 279.496 133.182C278.852 133.119 278.201 133.192 278.05 133.343ZM210.878 134.251C209.833 134.69 208.372 136.121 208.372 136.705C208.372 136.967 209.078 138.038 209.94 139.086C211.431 140.897 211.53 141.294 210.882 142.872C210.178 144.588 214.003 143.78 216.367 141.713C217.333 140.869 217.608 140.296 217.701 138.936C217.814 137.286 217.743 137.161 215.78 135.55C213.726 133.866 212.542 133.551 210.878 134.251ZM288.659 134.137C287.416 134.639 286.468 138.515 287.44 139.118C287.708 139.285 287.761 140.225 287.593 141.806C287.45 143.143 287.465 144.649 287.627 145.152C287.851 145.854 288.248 144.711 289.325 140.263C290.832 134.035 290.751 133.292 288.659 134.137ZM46.3575 135.822C45.7545 136.184 45.7765 136.371 46.6429 138.239C47.1595 139.352 47.5837 140.8 47.5856 141.456C47.5879 142.112 47.68 142.741 47.7911 142.852C47.9017 142.963 48.7693 142.876 49.7189 142.658C51.6522 142.213 51.6132 142.355 50.913 138.328L50.4419 135.619L48.7265 135.524C47.783 135.472 46.7169 135.606 46.3575 135.822ZM281.061 136.577C280.682 136.997 280.047 137.444 279.651 137.57C278.776 137.849 277.963 139.253 278.414 139.706C278.594 139.886 279.607 139.499 280.667 138.846C283.254 137.253 283.379 137.11 282.8 136.409C282.156 135.631 281.891 135.656 281.061 136.577ZM235.072 137.032C234.738 137.368 234.767 137.809 235.19 138.825C235.663 139.962 235.678 140.721 235.281 143.7C234.558 149.139 234.679 164.079 235.492 169.674C236.756 178.373 239.377 187.677 242.361 194.055C243.425 196.329 243.649 196.603 243.756 195.761C243.944 194.283 242.527 187.721 240.789 182.022C237.095 169.915 236.038 156.459 237.689 142.585C238.222 138.101 237.9 136.587 236.412 136.587C235.919 136.587 235.316 136.787 235.072 137.032ZM201.646 138.498C200.282 139.928 200.518 140.564 202.645 141.194C203.568 141.467 205.319 142.236 206.536 142.902C208.489 143.971 208.816 144.046 209.32 143.541C209.633 143.227 209.938 142.546 209.998 142.029C210.088 141.251 209.896 141.044 208.882 140.828C208.208 140.683 206.993 140.044 206.183 139.406C204.838 138.348 203.243 137.361 202.879 137.361C202.799 137.361 202.244 137.873 201.646 138.498ZM227.82 138.689C227.256 139.107 227.181 139.354 227.515 139.695C227.836 140.022 227.902 142.922 227.754 150.266C227.538 160.964 227.841 165.584 229.242 172.964C230.798 181.159 233.315 188.465 237.495 196.917C240.058 202.1 240.658 201.468 238.614 195.737C234.584 184.436 231.811 173.418 230.71 164.338C230.122 159.487 230.461 146.773 231.284 142.8C231.818 140.227 231.819 139.823 231.299 139.027C230.625 137.994 228.975 137.834 227.82 138.689ZM342.447 138.367C342.211 138.604 343.459 143.432 343.861 143.836C344.303 144.28 348.719 144.448 348.719 144.021C348.719 142.611 343.187 137.624 342.447 138.367ZM220.93 139.904C220.19 140.647 220.164 141.095 220.835 141.501C221.701 142.026 221.781 142.862 221.251 145.874C220.629 149.411 220.561 159.251 221.123 164.368C222.225 174.412 225.616 185.639 230.85 196.57C232.211 199.412 232.839 200.39 232.941 199.822C233.09 198.991 232.668 197.618 228.268 184.615C224.808 174.386 224.187 170.96 223.809 160C223.503 151.109 223.659 148.442 224.768 143.646C225.55 140.261 225.527 140.159 223.891 139.703C221.967 139.167 221.643 139.188 220.93 139.904ZM243.305 140.553C241.912 142.728 241.209 152.3 241.877 159.989C243.003 172.946 245.881 183.261 249.213 186.288C250.327 187.3 250.219 186.678 248.704 183.37C245.503 176.376 244.425 169.526 244.478 156.517C244.499 151.195 244.676 145.425 244.87 143.694C245.065 141.963 245.159 140.352 245.08 140.115C244.841 139.395 243.896 139.629 243.305 140.553ZM360.094 140.07C359.956 140.293 360.313 140.454 360.938 140.451C361.779 140.446 361.892 140.361 361.443 140.07C360.702 139.589 360.389 139.589 360.094 140.07ZM250.538 140.753C249.324 141.539 248.517 155.12 249.233 162.708C249.729 167.966 251.282 174.915 252.682 178.146C253.133 179.187 253.568 179.971 253.647 179.888C253.726 179.804 253.472 178.082 253.084 176.06C251.396 167.277 251.011 163.527 250.994 155.743C250.98 149.49 251.117 147.391 251.706 144.818C252.298 142.234 252.343 141.523 251.948 141.045C251.404 140.387 251.176 140.34 250.538 140.753ZM217.336 141.818C216.009 142.386 215.732 143.332 216.483 144.739C216.774 145.286 216.666 146.614 216.081 149.648C213.82 161.388 216.009 175.867 222.063 189.217C224.103 193.714 224.09 193.693 224.398 193.385C224.518 193.265 224.08 191.645 223.427 189.786C218.049 174.492 216.207 155.584 219.021 144.559C219.503 142.673 219.516 142.19 219.097 141.779C218.684 141.374 218.357 141.381 217.336 141.818ZM279.581 143.069C278.842 144.08 277.926 145.563 277.545 146.366C276.901 147.723 276.898 147.869 277.491 148.465C278.085 149.061 278.182 148.983 278.883 147.34C279.298 146.37 280.086 144.862 280.634 143.991C282.54 140.96 281.676 140.203 279.581 143.069ZM195.281 145.971C190.765 150.999 185.904 155.533 180.402 159.851C175.814 163.45 175.609 163.803 173.096 172.428C170.157 182.517 170.105 182.83 171.041 184.828C172.828 188.645 175.266 189.866 177.127 187.877C177.623 187.348 178.43 185.501 178.943 183.723C179.451 181.962 180.041 180.345 180.255 180.129C180.467 179.913 181.705 179.47 183.003 179.144C185.344 178.557 185.37 178.535 186.018 176.624C187.971 170.857 191.205 167.933 195.63 167.933C196.658 167.933 196.947 168.134 197.313 169.105C197.578 169.812 197.986 170.233 198.339 170.166C198.662 170.104 199.707 168.576 200.662 166.768C203.03 162.287 203.869 161.186 206.273 159.404C209.706 156.857 211.548 152.507 210.628 149.112C209.814 146.107 203.934 141.628 200.794 141.621C199.24 141.617 199.074 141.749 195.281 145.971ZM363.361 142.01C362.579 142.496 363.116 142.858 364.396 142.708C365.44 142.586 365.454 142.558 364.7 142.126C364.218 141.85 363.693 141.804 363.361 142.01ZM48.1319 143.699C48.0112 144.016 48.3436 145.026 48.8707 145.945C49.3978 146.864 49.9491 148.366 50.0964 149.283C50.3574 150.91 50.3933 150.944 51.5793 150.705C54.6022 150.096 54.5096 150.348 53.213 146.261L52.2926 143.359L50.3224 143.242C48.856 143.155 48.2958 143.272 48.1319 143.699ZM192.239 143.785C191.013 144.647 190.55 146.037 191.092 147.23C191.333 147.762 191.703 148.196 191.913 148.196C192.448 148.196 196.419 144.155 196.419 143.611C196.419 142.936 193.261 143.067 192.239 143.785ZM354.266 144.883C354.148 145.19 354.236 145.756 354.459 146.141C354.804 146.737 354.867 146.653 354.877 145.584C354.889 144.258 354.622 143.951 354.266 144.883ZM366.723 145.306C365.92 146.015 365.805 146.261 366.279 146.261C367.26 146.261 369.56 145.059 369.321 144.671C368.943 144.057 367.83 144.329 366.723 145.306ZM256.983 145.431C255.725 147.792 255.001 158.965 255.789 163.869C256.241 166.682 258.595 174.406 258.807 173.769C258.89 173.519 258.646 171.189 258.265 168.592C257.409 162.753 257.315 153.088 258.073 148.85C258.554 146.158 258.548 145.76 258.014 145.225C257.472 144.681 257.373 144.7 256.983 145.431ZM388.433 146.203C388.433 147.88 392.404 152.066 393.994 152.066C396.003 152.066 396.837 149.364 395.277 147.908C394.434 147.122 390.213 145.487 389.024 145.487C388.699 145.487 388.433 145.809 388.433 146.203ZM370.118 147.53C368.614 148.357 368.602 148.381 369.607 148.504C370.174 148.572 371.384 148.427 372.296 148.181C373.845 147.762 373.905 147.697 373.216 147.191C372.255 146.485 371.961 146.518 370.118 147.53ZM309.777 147.809C309.459 148.016 308.635 148.187 307.945 148.191C306.536 148.197 306.555 148.169 307.068 149.526C307.375 150.336 307.698 150.518 308.822 150.518C309.58 150.518 310.718 150.786 311.349 151.115C312.799 151.867 313.247 151.589 313.247 149.937C313.247 148.003 311.31 146.815 309.777 147.809ZM356.255 148.143C356.055 148.773 356.158 149.249 356.584 149.677C357.151 150.246 357.199 150.234 357.175 149.537C357.16 149.119 357.012 148.429 356.846 148.003C356.558 147.263 356.532 147.269 356.255 148.143ZM313.768 148.972C313.905 149.663 314.018 150.469 314.018 150.763C314.018 151.15 314.503 151.28 315.767 151.232C316.729 151.195 317.718 151.368 317.965 151.616C319.086 152.741 320.196 151.213 319.608 149.354C319.369 148.598 319.167 148.545 317.442 148.783C315.968 148.987 315.312 148.896 314.528 148.381L313.518 147.716L313.768 148.972ZM320.573 150.122V152.434L321.562 152.057C322.865 151.559 324.675 151.577 325.643 152.098C326.071 152.327 326.75 153.242 327.152 154.129L327.882 155.743L327.89 154.276C327.904 151.809 326.674 149.951 324.268 148.809C323.11 148.259 321.805 147.809 321.368 147.809C320.653 147.809 320.573 148.044 320.573 150.122ZM304.811 149.108C304.285 149.743 301.046 150.649 300.503 150.312C299.901 149.939 300.09 150.802 300.756 151.471C301.099 151.815 301.684 151.994 302.066 151.873C302.446 151.752 303.512 151.523 304.435 151.365C305.963 151.103 306.114 150.977 306.114 149.959C306.114 148.694 305.49 148.287 304.811 149.108ZM374.508 149.773C373.302 150.872 373.276 150.942 374.167 150.691C374.697 150.542 375.633 150.163 376.247 149.85C377.114 149.407 377.243 149.202 376.826 148.937C376.036 148.436 375.936 148.472 374.508 149.773ZM262.779 149.5C262.538 149.792 262.145 151.838 261.907 154.048C261.521 157.629 261.562 158.575 262.285 162.775C262.731 165.366 263.361 168.066 263.685 168.774C264.251 170.01 264.263 169.938 263.988 166.965C263.83 165.263 263.711 160.517 263.723 156.42C263.735 152.323 263.626 148.97 263.481 148.97C263.336 148.97 263.02 149.209 262.779 149.5ZM184.86 149.789C183.746 150.235 182.614 151.202 182.119 152.13C181.864 152.609 182.038 153.103 182.767 153.973C183.315 154.627 183.995 155.162 184.277 155.162C184.978 155.162 189.093 151.342 189.093 150.691C189.093 150.403 188.443 149.986 187.648 149.765C185.967 149.296 186.094 149.295 184.86 149.789ZM297.951 150.546C297.369 151.13 298.207 152.833 299.077 152.837C299.834 152.841 299.952 152.004 299.353 150.88C298.901 150.031 298.547 149.947 297.951 150.546ZM378.697 151.48C378.114 151.995 377.637 152.507 377.637 152.618C377.637 152.845 379.307 152.281 380.612 151.613C381.082 151.372 381.375 151.028 381.264 150.847C380.897 150.251 379.775 150.528 378.697 151.48ZM51.9541 151.427C51.0673 151.672 50.2248 151.993 50.0818 152.139C49.9383 152.286 50.3486 153.157 50.9932 154.074C51.6379 154.992 52.357 156.483 52.591 157.387C52.8255 158.292 53.2072 159.032 53.4397 159.032C54.409 159.032 56.8431 158.105 56.8431 157.736C56.8431 157.517 56.3735 155.89 55.7998 154.121C54.6712 150.643 54.7043 150.666 51.9541 151.427ZM381.396 152.245C380.813 152.765 380.336 153.283 380.336 153.395C380.336 153.767 383.883 152.269 383.942 151.873C384.057 151.089 382.425 151.327 381.396 152.245ZM294.612 152.772C294.022 153.39 292.421 154.551 291.055 155.354C288.882 156.63 288.57 156.956 288.57 157.964C288.57 158.744 288.726 159.044 289.052 158.895C289.318 158.774 291.42 157.899 293.725 156.95C296.03 156.001 298.066 155.074 298.249 154.891C298.765 154.373 297.349 151.887 296.465 151.76C296.002 151.694 295.248 152.105 294.612 152.772ZM299.927 152.999C299.209 153.526 299.208 153.571 299.88 154.317C300.263 154.741 300.707 155.933 300.867 156.964L301.157 158.839L301.609 157.291C302.168 155.377 302.185 154.175 301.666 153.202C301.19 152.309 300.911 152.277 299.927 152.999ZM359.354 153.129C359.019 154.187 359.708 155.722 360.082 154.75C360.21 154.417 360.159 153.723 359.969 153.208L359.624 152.272L359.354 153.129ZM302.836 153.639C302.836 154.016 302.745 154.563 302.634 154.854C302.483 155.25 303.29 155.56 305.815 156.075C310.707 157.074 310.721 157.073 310.861 155.858C310.927 155.284 310.79 154.454 310.556 154.015C310.217 153.38 309.981 153.297 309.4 153.609C308.419 154.137 307.25 154.103 304.848 153.477C302.983 152.992 302.836 153.004 302.836 153.639ZM385.156 154.001C384.375 154.867 384.823 154.999 386.282 154.332C386.815 154.087 387.161 153.739 387.049 153.558C386.704 152.998 385.887 153.19 385.156 154.001ZM361.11 154.671C360.821 155.36 360.702 156.23 360.847 156.606C361.098 157.26 361.127 157.26 361.493 156.605C361.704 156.228 361.822 155.357 361.756 154.67L361.636 153.421L361.11 154.671ZM311.383 155.655V157.383L313.424 157.401C314.727 157.413 316.058 157.724 317.106 158.26C318.739 159.096 318.752 159.096 319.506 158.339C320.127 157.716 320.186 157.431 319.829 156.762C319.589 156.313 319.008 155.87 318.537 155.777C317.239 155.522 313.164 154.503 312.219 154.198C311.446 153.948 311.383 154.058 311.383 155.655ZM387.276 155.549C386.527 156.138 386.457 156.308 386.962 156.315C388.054 156.329 389.651 155.574 389.397 155.163C389.039 154.581 388.35 154.707 387.276 155.549ZM177.996 155.766C176.926 156.519 175.984 158.299 175.984 159.57C175.984 161.702 177.795 161.338 180.772 158.607C181.956 157.521 182.924 156.493 182.924 156.322C182.924 155.932 180.768 155.162 179.675 155.162C179.224 155.162 178.468 155.434 177.996 155.766ZM298.986 155.839C298.994 156.896 299.425 158.258 299.752 158.258C300.233 158.258 300.433 156.942 300.092 156.019C299.716 154.999 298.978 154.879 298.986 155.839ZM363.075 156.05C362.217 158.026 362.138 158.874 362.763 159.395C363.575 160.071 363.842 159.324 363.674 156.854C363.547 155.005 363.536 154.99 363.075 156.05ZM267.181 156.307C266.666 157.144 266.533 161.585 266.99 162.708L267.461 163.869L267.736 162.902C267.887 162.37 268.124 160.585 268.261 158.935C268.466 156.477 268.412 155.936 267.96 155.936C267.658 155.936 267.307 156.103 267.181 156.307ZM296.475 156.531C295.838 156.823 293.8 157.617 291.944 158.294C289.452 159.203 288.57 159.702 288.57 160.203C288.57 160.84 288.695 160.845 290.595 160.282C291.708 159.952 293.92 159.405 295.511 159.067C298.345 158.464 298.405 158.426 298.523 157.194C298.658 155.788 298.325 155.68 296.475 156.531ZM303.279 156.421C302.222 157.481 302.822 158.564 305.778 160.932C307.396 162.229 308.951 163.289 309.235 163.289C309.92 163.289 310.626 161.909 310.476 160.864C310.391 160.273 309.991 159.954 309.112 159.774C307.635 159.473 306.103 158.521 304.725 157.049C303.97 156.242 303.612 156.087 303.279 156.421ZM389.782 157.282C388.934 158.015 388.382 158.623 388.554 158.63C389.139 158.657 392.674 157.004 392.674 156.704C392.674 156.472 391.73 155.912 391.389 155.942C391.354 155.945 390.631 156.548 389.782 157.282ZM320.474 157.581C320.371 158.06 320.168 158.732 320.023 159.075C319.819 159.561 320.233 159.892 321.891 160.567C323.633 161.277 324.109 161.676 324.495 162.749C324.756 163.472 325.184 164.063 325.448 164.063C326.164 164.063 327.127 162.484 327.127 161.31C327.127 160.455 326.846 160.166 325.489 159.628C324.588 159.272 323.21 158.469 322.427 157.845C321.644 157.221 320.927 156.71 320.833 156.71C320.739 156.71 320.578 157.102 320.474 157.581ZM392.689 158.661C391.462 159.713 391.425 159.806 392.226 159.806C392.967 159.806 395.155 158.921 395.748 158.381C395.974 158.175 394.931 157.493 394.409 157.506C394.197 157.511 393.423 158.031 392.689 158.661ZM54.6261 159.609C53.9367 159.91 53.373 160.314 53.373 160.508C53.373 160.702 53.8931 161.517 54.5289 162.32C55.1643 163.123 55.8634 164.446 56.0816 165.259C56.2998 166.073 56.6233 166.829 56.8003 166.939C56.9773 167.049 57.8545 166.85 58.749 166.497C60.5839 165.774 60.5727 165.933 59.0929 161.654C58.25 159.217 58.1186 159.051 57.0359 159.056C56.3997 159.06 55.3155 159.308 54.6261 159.609ZM365.549 159.325C365.45 159.486 365.253 160.238 365.111 160.995C364.921 162.012 365.013 162.503 365.462 162.878C366.003 163.328 366.07 163.145 366.07 161.208C366.07 159.128 365.946 158.681 365.549 159.325ZM273.57 161.085C271.763 161.722 271.32 162.541 271.906 164.167C272.338 165.364 272.117 166.324 269.127 176.278C265.609 187.987 262.088 198.755 259.416 205.97C257.8 210.336 257.751 210.59 258.285 211.871C258.966 213.508 259.8 213.585 262.61 212.271C264.921 211.192 265.682 210.138 265.033 208.92C263.914 206.822 266.223 198.547 270.153 190.572C273.153 184.485 274.622 182.244 277.382 179.543C279.393 177.575 280.063 176.625 280.458 175.182C281.046 173.033 280.854 169.816 279.886 165.629C278.838 161.095 277.099 159.844 273.57 161.085ZM311.348 161.476C310.601 163.438 310.81 164.361 312.062 164.637C312.682 164.774 313.467 165.31 313.806 165.829C314.144 166.347 314.68 166.772 314.997 166.772C315.569 166.772 317.098 164.638 317.101 163.834C317.102 163.602 316.148 163.198 314.982 162.936C313.816 162.674 312.861 162.331 312.861 162.174C312.861 162.017 312.614 161.551 312.312 161.138C311.782 160.413 311.747 160.425 311.348 161.476ZM327.417 162.377C326.759 164.629 326.857 164.921 328.113 164.441C328.803 164.178 329.505 164.25 330.621 164.698C332.358 165.395 333.296 166.823 333.296 168.765C333.296 170.675 334.044 169.597 334.316 167.295C334.481 165.895 334.369 165.023 333.91 164.13C333.173 162.702 330.926 161.091 329.179 160.74C328.002 160.504 327.951 160.552 327.417 162.377ZM209.928 162.102C208.803 164.211 210.191 174.826 212.309 180.317C213.209 182.649 216.389 187.878 216.711 187.555C216.822 187.444 216.307 185.726 215.566 183.738C213.39 177.902 211.773 170.718 211.244 164.547C210.968 161.32 210.655 160.738 209.928 162.102ZM368.696 162.128C368.556 162.447 368.236 163.379 367.984 164.2C367.596 165.462 367.62 165.785 368.138 166.305C369.031 167.201 369.208 166.766 369.072 164.011C369.006 162.656 368.836 161.809 368.696 162.128ZM170.008 163.622C169.372 164.016 168.511 164.722 168.096 165.191C167.072 166.348 167.553 167.038 170.48 168.611L172.824 169.87L173.633 167.197C174.694 163.689 174.669 163.431 173.237 163.144C171.503 162.796 171.29 162.827 170.008 163.622ZM318.161 163.517C318.036 163.642 318.027 164.322 318.141 165.028C318.308 166.061 318.19 166.395 317.532 166.748C316.67 167.211 316.521 167.797 317.05 168.635C317.227 168.915 318.521 169.407 319.927 169.729C321.689 170.132 322.859 170.667 323.697 171.453C324.795 172.482 324.894 172.761 324.718 174.326C324.49 176.359 324.836 176.484 326.386 174.928C329.036 172.269 326.802 167.195 321.804 164.521C319.551 163.315 318.617 163.058 318.161 163.517ZM204.11 167.802C203.504 169.644 203.842 173.531 204.911 177.027C205.638 179.407 206.932 181.566 207.332 181.069C207.563 180.782 205.115 166.385 204.836 166.385C204.693 166.385 204.366 167.023 204.11 167.802ZM59.4326 167.758L57.9871 168.743L59.7067 170.862C60.6525 172.027 61.6442 173.586 61.911 174.327C62.4524 175.83 62.691 175.947 63.419 175.067C63.6947 174.733 64.4099 174.206 65.0083 173.896C66.2977 173.226 66.4052 172.203 65.2929 171.192C64.8506 170.791 63.8817 169.632 63.1395 168.617C62.3972 167.602 61.5845 166.772 61.3338 166.772C61.0828 166.772 60.2272 167.215 59.4326 167.758ZM371.123 167.858C370.729 168.796 370.699 169.251 371.014 169.567C371.573 170.128 371.958 169.184 371.786 167.675L371.661 166.578L371.123 167.858ZM374.862 168.926C374.748 169.125 374.44 169.952 374.179 170.764C373.757 172.079 373.782 172.299 374.413 172.762C375.393 173.481 375.714 173.159 375.682 171.49C375.651 169.87 375.176 168.383 374.862 168.926ZM377.167 172.637C376.636 174.998 376.646 175.118 377.415 175.761C377.855 176.128 378.37 176.433 378.56 176.438C378.986 176.449 378.518 170.984 378.053 170.518C377.865 170.329 377.478 171.256 377.167 172.637ZM193.197 171.586C192.603 172.23 191.935 172.518 191.094 172.494C189.341 172.444 187.166 174.728 187.166 176.62C187.166 178.251 191.181 181.667 206.059 192.693C223.373 205.526 229.489 210.83 232.013 215.201C233.382 217.571 233.464 218.409 232.331 218.475C230.388 218.587 230.116 221.249 231.888 222.81C233.311 224.063 235.919 225.157 237.553 225.186C238.486 225.202 238.974 224.933 239.594 224.06C240.257 223.125 240.606 222.951 241.473 223.125C242.723 223.376 243.555 222.592 243.555 221.164C243.555 220.644 242.865 219.204 242.021 217.963C241.178 216.723 240.109 214.85 239.647 213.8C238.71 211.675 236.483 208.572 233.835 205.701C231.835 203.532 224.983 197.752 220.71 194.629C209.278 186.271 205.154 182.43 201.128 176.389C197.318 170.672 195.217 169.399 193.197 171.586ZM164.524 171.792C162.29 173.159 162.46 175.84 164.863 177.142C167.384 178.507 167.627 178.976 167.392 182.013C167.274 183.528 167.059 185.072 166.913 185.444C166.504 186.489 168.129 186.314 168.832 185.237C169.52 184.184 170.182 179.928 170.193 176.498C170.2 174.147 170.132 173.964 168.704 172.531C167.012 170.833 166.298 170.706 164.524 171.792ZM64.8367 175.106C62.942 176.399 62.9914 177.31 65.0365 178.784C65.9379 179.434 66.9651 180.495 67.3194 181.142L67.9633 182.318L69.4107 180.987L70.8578 179.656L69.0259 176.89C68.0185 175.369 66.9874 174.125 66.7349 174.125C66.4823 174.125 65.6283 174.566 64.8367 175.106ZM156.667 177.991C155.237 178.75 152.85 181.197 152.85 181.904C152.85 182.953 153.792 183.792 155.641 184.391C160.316 185.905 162.124 187.758 160.791 189.669C160.001 190.8 159.981 193.036 160.757 193.335C161.464 193.607 162.49 192.951 164.899 190.69C166.954 188.76 167.278 187.835 165.767 188.215C164.642 188.499 164.65 188.55 165.373 185.541C165.681 184.264 165.938 182.728 165.945 182.129C165.957 181.212 165.836 181.077 165.188 181.284C163.891 181.697 163.03 181.156 161.785 179.146C160.741 177.459 160.436 177.223 159.324 177.238C158.626 177.247 157.43 177.586 156.667 177.991ZM69.5966 181.705C68.4576 182.667 68.0131 183.799 68.7742 183.799C68.9743 183.799 69.7088 184.757 70.4067 185.928C71.1042 187.099 71.9382 188.056 72.2597 188.054C72.5813 188.053 73.3347 187.658 73.9342 187.177C74.8253 186.462 74.9768 186.11 74.7624 185.253C74.496 184.188 71.696 180.703 71.1061 180.703C70.9283 180.703 70.249 181.154 69.5966 181.705ZM327.086 182.791C325.024 183.387 321.604 185.183 320.819 186.081C320.522 186.423 320.159 187.093 320.014 187.573C319.788 188.318 319.892 188.443 320.74 188.443C322.095 188.443 323.351 189.783 323.216 191.082C322.928 193.838 325.211 193.862 328.185 191.134C332.83 186.873 336.138 186.396 338.825 189.6C339.407 190.294 340.006 190.739 340.156 190.588C340.307 190.437 340.43 189.488 340.43 188.479C340.43 186.236 339.159 184.176 337.167 183.188C335.394 182.308 329.552 182.078 327.086 182.791ZM145.016 184.948C143.624 186.607 143.617 188.528 144.998 189.812C145.903 190.655 148.055 191.531 149.231 191.537C149.468 191.538 150.137 191.915 150.718 192.374C151.608 193.076 151.741 193.416 151.562 194.523C151.403 195.508 151.538 196.027 152.1 196.591C152.999 197.493 153.566 197.534 154.65 196.771C155.633 196.08 159.267 190.484 159.601 189.146C159.953 187.741 159.122 187.204 157.411 187.731C156.117 188.13 155.86 188.042 152.735 186.125C150.527 184.77 148.868 184.034 147.739 183.906C146.205 183.732 145.954 183.828 145.016 184.948ZM75.0466 187.186C74.6206 187.558 73.9902 188.317 73.6458 188.872C72.9456 190.002 73.2209 190.437 74.9649 190.959C76.304 191.359 76.8114 191.83 77.522 193.334C77.8871 194.106 78.4219 194.635 78.8364 194.635C79.6206 194.635 81.134 192.908 81.134 192.014C81.134 191.513 76.4563 186.508 75.9889 186.508C75.8968 186.508 75.4727 186.813 75.0466 187.186ZM186.112 187.282C185.749 187.708 184.983 188.056 184.409 188.056C183.09 188.056 181.768 189.668 181.768 191.276C181.768 192.863 183.212 194.216 195.268 203.916C206.648 213.071 212.525 218.689 213.956 221.779C214.903 223.822 214.905 223.855 214.13 223.979C213.697 224.049 213.174 224.551 212.968 225.096C212.432 226.51 213.396 227.795 215.791 228.856C217.281 229.515 217.587 229.783 217.077 229.98C215.525 230.577 213.796 230.238 212.479 229.077C211.755 228.439 211.067 227.916 210.952 227.916C210.836 227.916 210.217 228.837 209.576 229.962C208.454 231.931 206.934 233.334 201.239 237.663C197.214 240.723 184.814 248.792 182.253 250.019C179.552 251.313 178.938 252.122 180.044 252.933C180.71 253.422 180.688 253.458 179.721 253.458C178.883 253.458 178.683 253.636 178.683 254.384C178.683 255.451 179.691 255.998 180.467 255.352C180.879 255.009 180.997 255.05 180.997 255.539C180.997 255.884 180.823 256.167 180.611 256.167C180.399 256.167 180.225 256.428 180.225 256.747C180.225 257.112 180.592 257.328 181.215 257.328C183.759 257.328 184.684 255.123 182.539 254.17C181.173 253.563 181.132 253.414 182.153 252.773C182.797 252.369 182.924 252.387 182.924 252.879C182.924 253.551 185.092 255.002 186.098 255.004C186.482 255.005 186.84 254.635 186.941 254.135C187.038 253.656 187.211 252.829 187.327 252.297C187.578 251.14 193.751 245.806 198.665 242.499C204.273 238.725 210.391 235.944 215.357 234.912C217.688 234.427 218.944 233.429 219.365 231.727C219.548 230.987 219.442 230.601 218.986 230.345C218.404 230.018 218.409 229.89 219.05 228.746C219.524 227.9 219.964 227.558 220.428 227.675C221.174 227.864 222.252 226.993 222.252 226.201C222.252 225.387 218.211 217.651 216.721 215.614C215.232 213.579 210.511 208.929 207.408 206.441C197.376 198.4 194.783 195.819 191.956 191.059C189.324 186.626 187.614 185.521 186.112 187.282ZM139.062 189.26C137.035 190.267 136.383 191.492 137.034 193.069C137.641 194.539 139.793 196.476 141.193 196.812C142.947 197.232 142.994 197.419 141.63 198.54L140.319 199.619L141.861 200.271L143.403 200.923L145.906 199.617C148.655 198.183 150.26 196.268 150.072 194.648C149.977 193.826 149.776 193.681 148.835 193.749C147.94 193.814 147.219 193.37 145.31 191.576C142.219 188.675 141.087 188.255 139.062 189.26ZM166.085 190.637C162.249 193.564 161.332 194.393 161.332 194.932C161.332 195.663 163.897 199.815 164.899 200.707C165.333 201.093 165.756 201.234 165.842 201.02C166.906 198.382 167.367 197.902 169.719 196.986C171.057 196.464 172.128 195.81 172.128 195.513C172.128 195.22 171.434 193.825 170.586 192.413C169.738 191.002 169.044 189.705 169.044 189.532C169.044 188.843 167.854 189.288 166.085 190.637ZM316.91 189.824C316.274 190.124 314.972 190.333 314.018 190.29C312.121 190.203 312.052 190.319 312.814 192.313C313.313 193.618 313.405 193.668 315.314 193.668C316.605 193.668 317.9 193.973 319.03 194.544L320.765 195.421L321.44 194.598C322.724 193.032 322.149 190.816 320.195 189.802C318.853 189.105 318.432 189.109 316.91 189.824ZM170.586 190.792C170.586 191.489 172.888 194.609 173.886 195.266C174.749 195.834 174.906 195.833 175.776 195.261C176.928 194.504 179.84 191.504 179.84 191.074C179.84 190.599 179.321 190.694 176.936 191.611L174.734 192.456L172.893 191.417C170.846 190.263 170.586 190.192 170.586 190.792ZM309.819 191.46C309.399 192.247 305.889 193.474 304.056 193.474C302.589 193.474 302.528 193.822 303.784 195.007C304.717 195.886 304.768 195.891 307.075 195.307C308.364 194.981 309.744 194.8 310.143 194.905C310.629 195.033 311.084 194.764 311.525 194.089C312.082 193.235 312.109 192.907 311.704 191.924C311.165 190.619 310.372 190.424 309.819 191.46ZM85.3752 192.856C85.3752 193.985 85.5484 194.233 86.5894 194.597C88.0866 195.121 90.3877 195.153 90.3877 194.651C90.3877 194.446 89.6747 194.065 88.8037 193.803C87.8132 193.505 87.0675 192.992 86.8138 192.433C86.1961 191.072 85.3752 191.314 85.3752 192.856ZM130.694 192.983C129.442 194.833 129.353 197.55 130.496 199.009C132.17 201.145 138.845 202.507 139.708 200.888C140.116 200.121 139.836 199.477 137.557 195.945C135.254 192.376 134.383 191.539 132.969 191.539C131.902 191.539 131.497 191.796 130.694 192.983ZM80.9547 194.288C80.2051 194.949 79.5917 195.641 79.5917 195.826C79.5917 196.01 80.4677 196.54 81.5384 197.002C82.7966 197.545 83.6865 198.233 84.0547 198.948C84.3678 199.556 84.7954 200.053 85.0051 200.053C85.6856 200.053 88.0839 197.549 87.7854 197.151C86.9561 196.043 83.4019 193.087 82.8991 193.087C82.5791 193.087 81.7042 193.628 80.9547 194.288ZM300.018 193.534C299.244 193.969 299.19 194.716 299.848 195.898C300.527 197.117 300.956 197.346 301.755 196.916C302.56 196.485 302.628 195.836 302.013 194.481C301.487 193.323 300.894 193.042 300.018 193.534ZM295.511 196.632C291.475 200.303 283.158 204.721 271.609 209.329C265.383 211.814 263.315 213.04 262.724 214.6C261.518 217.784 264.326 217.386 276.079 212.705C286.98 208.365 290.386 207.25 296.163 206.133C299.699 205.449 300.513 205.164 300.672 204.553C300.921 203.599 300.529 201.601 300.094 201.601C299.911 201.601 298.328 202.196 296.576 202.923C292.536 204.599 284.261 207.466 284.057 207.261C283.885 207.089 296.792 201.573 299.077 200.842C300.614 200.351 300.765 199.973 300.113 198.24C299.718 197.19 297.909 195.005 297.463 195.038C297.343 195.047 296.465 195.764 295.511 196.632ZM74.5793 196.108C74.5793 198.471 75.999 200.053 78.1181 200.053C79.4425 200.053 79.6353 199.952 79.4132 199.376C79.2698 199.003 79.0565 198.224 78.9397 197.643C78.6629 196.265 78.1597 195.885 76.1987 195.57C74.7362 195.335 74.5793 195.387 74.5793 196.108ZM91.2895 196.374C90.3757 197.045 90.8322 197.855 92.944 199.314C94.2892 200.243 95.3291 200.628 96.8259 200.753C99.0892 200.941 99.3356 200.627 97.9498 199.32C97.1444 198.56 97.0819 198.312 97.4505 197.332C97.9787 195.928 97.7061 195.64 96.4095 196.233C95.663 196.574 94.9289 196.592 93.6608 196.301C92.3745 196.005 91.7661 196.024 91.2895 196.374ZM156.696 198.258C153.142 200.652 152.98 200.902 153.958 202.49C154.952 204.103 156.551 205.858 157.027 205.858C157.224 205.858 157.581 205.077 157.821 204.123C158.148 202.819 158.47 202.344 159.119 202.21C162.41 201.533 164.031 201.107 164.031 200.92C164.031 200.801 163.332 199.774 162.477 198.637C161.414 197.224 160.65 196.57 160.063 196.57C159.59 196.57 158.076 197.33 156.696 198.258ZM302.569 197.508L301.487 198.445L302.612 199.628C303.55 200.615 303.778 201.248 303.98 203.431L304.223 206.051L304.879 203.949C305.72 201.258 305.744 197.996 304.93 197.178C304.121 196.367 303.841 196.406 302.569 197.508ZM306.607 198.565C306.51 199.277 306.359 200.121 306.272 200.44C306.154 200.875 306.501 201.046 307.656 201.124C309.715 201.261 314.554 202.316 316.097 202.963C317.878 203.71 318.452 203.195 318.452 200.855C318.452 198.668 317.497 197.181 316.643 198.038C316.072 198.611 312.086 198.637 309.97 198.082C306.582 197.193 306.8 197.162 306.607 198.565ZM88.2805 198.932C86.1244 200.832 86.4726 201.875 89.5718 202.799C90.9039 203.196 91.3747 203.573 91.7938 204.58C92.4902 206.253 93.8636 206.319 94.9883 204.734C95.4267 204.116 95.7856 203.448 95.7856 203.251C95.7856 202.889 90.2419 197.731 89.8529 197.731C89.7376 197.731 89.0301 198.272 88.2805 198.932ZM319.187 200.983L319.223 203.461L322.115 203.609C324.251 203.718 325.639 204.046 327.427 204.865L329.847 205.973L330.801 205.074C332.034 203.911 332.003 203.339 330.627 201.958C329.731 201.059 329.158 200.826 327.832 200.822C326.027 200.817 323.159 200.118 320.874 199.127C320.086 198.785 319.376 198.505 319.296 198.505C319.217 198.505 319.168 199.62 319.187 200.983ZM169.43 199.327C168.408 199.736 166.73 201.163 166.73 201.623C166.73 201.774 167.06 201.984 167.462 202.09C169.55 202.638 170.327 206.871 169.228 211.702C168.681 214.105 168.629 214.884 168.992 215.248C169.686 215.945 171.404 214.854 172.208 213.205C173.787 209.968 174.698 199.609 173.446 199.127C172.554 198.783 170.537 198.884 169.43 199.327ZM101.569 199.931C101.569 200.077 101.959 200.625 102.437 201.15L103.304 202.103L102.34 201.816C100.282 201.203 99.42 201.186 98.6774 201.747C96.9373 203.061 100.155 205.123 104.365 205.392C106.632 205.537 106.967 205.473 106.967 204.893C106.967 204.527 106.533 203.711 106.003 203.078C105.473 202.446 105.039 201.693 105.039 201.406C105.039 200.522 103.887 199.666 102.699 199.666C102.077 199.666 101.569 199.785 101.569 199.931ZM125.117 200.686C123.891 202.25 124.046 202.783 126.149 204.258C127.449 205.169 127.771 205.858 126.898 205.858C126.62 205.858 126.063 206.1 125.659 206.397C125.036 206.854 125.003 207.029 125.44 207.558C126.088 208.342 127.169 208.345 129.438 207.568C130.527 207.196 131.319 206.661 131.465 206.199C131.597 205.782 132.385 204.989 133.217 204.437C135.581 202.867 135.256 202.226 132.219 202.471L129.711 202.673L128.524 201.169C127.134 199.408 126.22 199.278 125.117 200.686ZM301.393 200.514C301.052 200.927 301.085 201.529 301.535 203.069C302.169 205.242 302.611 205.592 302.979 204.213C303.379 202.715 303.247 201.717 302.531 200.83C301.952 200.113 301.767 200.061 301.393 200.514ZM147.838 202.216C146.035 202.962 144.343 203.67 144.078 203.789C143.372 204.106 143.483 204.885 144.53 206.959C146.027 209.924 146.058 209.931 150.392 208.368C152.486 207.612 154.431 206.849 154.715 206.672C155.524 206.168 152.386 200.764 151.33 200.843C151.212 200.852 149.64 201.47 147.838 202.216ZM84.0346 202.365C83.5947 202.853 82.9361 203.119 82.3231 203.057C81.4536 202.968 81.3113 203.117 81.2049 204.226C81.0395 205.951 83.26 208.297 84.8813 208.11L85.9536 207.986V204.896C85.9536 202.402 85.8372 201.782 85.3513 201.689C85.0205 201.625 84.4279 201.929 84.0346 202.365ZM307.498 202.139C307.246 202.444 306.948 203.274 306.835 203.985C306.638 205.223 306.771 205.392 310 207.986C313.406 210.723 315.881 212.431 316.447 212.435C316.993 212.438 317.921 209.689 317.799 208.431C317.689 207.299 317.557 207.197 315.946 207.001C313.71 206.729 312.759 206.183 310.119 203.657C308.31 201.924 307.881 201.676 307.498 202.139ZM136.945 202.409C136.574 202.624 136.27 203.057 136.27 203.371C136.27 203.685 135.854 204.101 135.344 204.296C134.131 204.758 133.841 205.279 134.493 205.823C134.897 206.16 135.751 205.975 138.152 205.032C139.874 204.355 141.283 203.676 141.283 203.522C141.283 203.246 139.889 202.62 138.391 202.222C137.967 202.11 137.316 202.194 136.945 202.409ZM118.235 202.977C117.153 203.738 117.136 204.87 118.195 205.615C118.991 206.174 118.972 206.201 117.469 206.607C115.637 207.102 114.724 207.994 115.377 208.649C115.815 209.088 121.903 209.147 123.257 208.725C124.73 208.266 123.784 205.084 122.175 205.084C121.5 205.084 121.079 204.77 120.751 204.02C119.99 202.281 119.508 202.082 118.235 202.977ZM163.737 202.846C163.508 203.123 163.048 204.527 162.715 205.966C161.985 209.129 160.971 211.205 159.195 213.178C158.462 213.993 157.862 214.939 157.862 215.282C157.862 216.016 159.162 216.414 160.99 216.238C162.208 216.122 162.409 215.89 163.95 212.824C165.966 208.812 166.708 205.37 165.915 203.709C165.315 202.451 164.371 202.078 163.737 202.846ZM112.18 203.136C112.039 203.366 112.033 204.058 112.167 204.674C112.475 206.078 111.663 206.619 109.658 206.349C108.102 206.14 106.582 206.744 106.582 207.571C106.582 208.102 109.12 209.315 110.349 209.371C110.748 209.39 110.823 209.48 110.535 209.597C110.271 209.703 109.171 209.496 108.091 209.136C105.733 208.35 105.315 208.621 105.266 210.97L105.232 212.63L106.967 212.742C107.921 212.804 109.307 213.137 110.046 213.481C111.705 214.254 113.862 214.763 114.058 214.428C114.139 214.291 114.328 213.264 114.478 212.146L114.751 210.115L112.883 210.103C111.313 210.093 111.138 210.024 111.787 209.666C112.211 209.432 113.294 208.533 114.192 207.667C115.808 206.11 115.819 206.083 115.098 205.298C114.698 204.861 114.308 204.155 114.231 203.729C114.079 202.883 112.599 202.455 112.18 203.136ZM332.48 203.052C332.454 203.212 332.456 203.477 332.483 203.642C332.51 203.807 332.188 204.618 331.768 205.443L331.005 206.945L333.596 207.979C337.23 209.427 337.836 209.901 338.308 211.662C339.015 214.294 340.889 213.486 341.769 210.171C342.271 208.281 342.092 207.406 341.204 207.406C340.041 207.406 335.788 205.173 334.67 203.976C333.604 202.833 332.582 202.402 332.48 203.052ZM95.9884 205.065C95.07 206.847 95.2501 207.282 97.1795 207.941C98.158 208.276 99.7157 209.251 100.641 210.106C101.566 210.962 102.496 211.663 102.709 211.663C103.272 211.663 104.22 210.068 104.504 208.64C104.732 207.494 104.652 207.365 103.45 206.946C102.733 206.696 101.061 205.914 99.7323 205.207C98.4036 204.501 97.1502 203.923 96.9466 203.923C96.743 203.923 96.3119 204.437 95.9884 205.065ZM138.063 206.133C136.61 206.911 135.333 207.777 135.226 208.058C134.911 208.88 135.426 210.355 136.457 211.585L137.416 212.728L140.795 211.027C142.654 210.091 144.228 209.167 144.294 208.974C144.359 208.781 144.034 207.74 143.572 206.66C142.521 204.209 141.788 204.139 138.063 206.133ZM154.894 207.41C154.336 207.636 153.896 208.32 153.604 209.417C153.361 210.333 152.658 212.276 152.042 213.735C151.426 215.194 150.922 216.723 150.922 217.133C150.922 218.214 151.952 218.445 153.487 217.711C155.04 216.968 155.886 215.299 156.926 210.931C157.585 208.162 157.584 208.055 156.89 207.545C156.074 206.947 156.046 206.945 154.894 207.41ZM93.4722 208.18C93.0481 208.605 92.7011 209.117 92.7011 209.318C92.7011 209.517 92.0506 209.735 91.2552 209.801C89.9882 209.907 89.7939 210.057 89.684 211.018C89.4407 213.151 93.9387 216.286 96.0949 215.485C97.1058 215.11 97.2165 213.776 96.3408 212.521C95.9005 211.89 95.8072 211.201 95.9938 209.953C96.2128 208.487 96.1392 208.19 95.4641 207.827C94.4265 207.27 94.3687 207.28 93.4722 208.18ZM131.671 208.821C130.945 209.139 129.47 209.429 128.394 209.467L126.438 209.534L126.32 210.969C126.156 212.948 126.834 214.14 127.917 213.781C128.376 213.629 130.179 213.384 131.923 213.239C133.667 213.093 135.187 212.879 135.301 212.764C135.576 212.488 133.666 208.17 133.287 208.212C133.125 208.229 132.398 208.503 131.671 208.821ZM318.869 209.337C318.746 209.978 318.544 211.024 318.422 211.663C318.228 212.666 318.312 212.824 319.038 212.824C319.5 212.824 320.486 213.433 321.227 214.177C322.738 215.694 323.109 215.632 323.902 213.727C324.573 212.115 324.431 211.848 322.592 211.255C320.954 210.727 319.802 209.842 319.802 209.11C319.802 208.056 319.082 208.231 318.869 209.337ZM342.925 208.47C342.918 208.63 342.595 209.931 342.206 211.36C341.816 212.791 341.571 214.034 341.66 214.123C341.749 214.213 342.4 214.108 343.106 213.891C345.565 213.133 348.924 214.471 350.051 216.658C350.379 217.297 350.791 218.741 350.965 219.868L351.282 221.918L351.928 219.816C352.284 218.66 352.575 217.218 352.575 216.611C352.575 215.102 351.589 212.856 350.337 211.517C348.581 209.638 342.968 207.33 342.925 208.47ZM123.354 210.168C122.718 210.373 120.782 210.438 119.053 210.311L115.909 210.08L115.648 211.629C115.145 214.618 116.186 215.375 119.501 214.429C120.178 214.236 121.647 214.266 123.057 214.502C125.517 214.913 126.353 214.711 125.545 213.901C125.294 213.649 125.089 212.607 125.089 211.585C125.089 210.564 124.959 209.743 124.8 209.761C124.641 209.779 123.99 209.962 123.354 210.168ZM145.524 212.242C144.792 213.762 141.993 216.694 141.276 216.694C140.838 216.694 140.126 218.612 140.126 219.79C140.126 220.744 140.329 220.97 141.466 221.286C143.489 221.846 144.227 221.455 145.532 219.136C146.187 217.971 147.408 216.272 148.244 215.361C150.024 213.423 150.15 212.41 148.749 211.304C147.191 210.073 146.47 210.283 145.524 212.242ZM324.829 213.174C324.083 214.983 324.426 216.092 325.778 216.239C326.414 216.308 327.481 216.891 328.149 217.535C329.013 218.368 329.587 218.634 330.139 218.458C331.076 218.16 332.271 216.434 332.011 215.755C331.909 215.486 330.743 215.036 329.421 214.754C327.457 214.336 326.904 214.043 326.398 213.148C325.619 211.774 325.405 211.777 324.829 213.174ZM102.34 213.327C102.34 213.603 102.53 214.02 102.762 214.253C103.394 214.887 102.497 216.305 101.459 216.312C99.9197 216.321 98.8999 216.764 98.6585 217.528C98.3277 218.574 99.0846 219.338 100.74 219.63C101.514 219.767 102.943 220.381 103.917 220.995C106.072 222.356 106.477 222.378 107.027 221.166C107.386 220.376 107.288 219.897 106.432 218.254C105.64 216.733 105.497 216.12 105.802 215.549C106.428 214.374 106.268 213.755 105.214 213.273C103.903 212.673 102.34 212.703 102.34 213.327ZM258.882 214.417C258.882 215.045 259.061 215.189 259.653 215.033C260.077 214.922 260.424 214.989 260.424 215.182C260.424 215.375 260.25 215.533 260.038 215.533C259.826 215.533 259.653 215.718 259.653 215.945C259.653 216.172 260.13 216.303 260.713 216.235C262.184 216.065 262.367 214.679 261.002 214.055C259.529 213.381 258.882 213.492 258.882 214.417ZM135.916 215.58C135.654 216.457 135.008 217.609 134.479 218.139C133.332 219.291 132.735 220.717 133.053 221.548C133.351 222.327 135.878 222.162 136.287 221.337C136.446 221.018 137.151 219.56 137.854 218.098L139.132 215.44L138.237 214.712C136.912 213.635 136.445 213.81 135.916 215.58ZM125.863 215.523C125.419 215.804 125.393 215.992 125.746 216.347C126.318 216.921 125.019 219.703 124.011 220.061C122.953 220.437 122.004 221.406 122.004 222.111C122.004 223.198 123.272 224.009 126.039 224.694C128.362 225.27 128.781 225.28 129.668 224.781C130.772 224.158 131.509 222.551 131.136 221.576C130.978 221.163 130.433 220.95 129.535 220.95C127.947 220.95 127.837 220.507 128.798 217.979C129.142 217.075 129.321 216.068 129.196 215.741C128.941 215.072 126.794 214.932 125.863 215.523ZM114.936 215.791C114.794 215.932 114.679 216.466 114.679 216.977C114.679 218.418 114.017 219.331 112.352 220.183C110.665 221.047 110.514 221.497 111.458 222.849C112.053 223.702 112.26 223.745 114.74 223.513C116.664 223.334 117.757 223.421 118.741 223.834C120.449 224.55 121.233 224.257 121.233 222.904C121.233 221.68 120.352 220.755 118.606 220.144C117.544 219.772 117.378 219.532 117.378 218.372C117.378 217.634 117.198 216.693 116.978 216.281C116.588 215.55 115.448 215.276 114.936 215.791ZM332.218 217.18C331.324 218.261 331.249 219.805 332.049 220.682C332.475 221.149 333.2 222.282 333.659 223.2C334.718 225.318 335.855 225.312 336.891 223.183C337.745 221.43 337.478 220.365 335.991 219.594C335.382 219.278 334.577 218.496 334.2 217.856C333.466 216.609 332.86 216.402 332.218 217.18ZM338.723 220.66C338.536 221.139 338.062 222.401 337.671 223.464C337.28 224.527 336.902 225.529 336.831 225.689C336.76 225.85 337.688 225.981 338.893 225.981C343.189 225.981 345.221 227.89 345.279 231.98L345.312 234.302L345.913 232.947C346.754 231.053 346.967 228.27 346.404 226.556C345.861 224.904 343.833 222.498 341.625 220.887C339.809 219.562 339.172 219.512 338.723 220.66ZM228.475 225.075C227.407 227.19 226.202 228.826 224.501 230.471C219.68 235.133 208.087 243.931 195.455 252.512C188.454 257.269 185.739 258.876 184.703 258.876C183.976 258.876 182.539 260.701 182.539 261.623C182.539 263.156 185.566 263.671 186.688 262.329C187.057 261.887 187.674 261.352 188.061 261.14C188.736 260.768 188.737 260.793 188.08 261.799C187.403 262.837 187.407 262.852 188.614 263.935C189.284 264.535 190.546 265.241 191.42 265.504C193.248 266.053 193.556 265.809 193.93 263.519C194.051 262.774 194.232 261.768 194.331 261.282C194.651 259.724 202.723 252.347 210.245 246.739C219.264 240.016 230.91 234.382 238.333 233.153C241.219 232.676 244.103 228.273 242.667 226.536C241.656 225.314 240.848 225.163 238.842 225.822C236.039 226.741 234.529 226.332 232.055 223.984L230.008 222.041L228.475 225.075ZM230.908 248.533C227.96 249.721 226.225 252.076 225.529 255.832C225.25 257.334 225.824 258.155 226.604 257.371C227.303 256.67 228.826 256.879 229.55 257.776C230.49 258.94 230.989 258.449 231.21 256.146C231.549 252.597 233.99 250.551 237.482 250.887C238.543 250.989 239.757 251.208 240.181 251.375C240.917 251.664 240.924 251.635 240.336 250.743C239.092 248.857 237.814 248.252 234.86 248.153C233.334 248.101 231.555 248.273 230.908 248.533ZM184.467 255.986C184.467 256.312 183.859 256.939 183.117 257.379C182.375 257.818 181.768 258.335 181.768 258.527C181.768 259.266 183.887 258.822 185.915 257.658C188.014 256.453 188.026 256.435 187.119 255.93C185.85 255.224 184.467 255.253 184.467 255.986ZM227.03 258.267C226.541 259.544 227.06 260.568 228.368 260.906C229.08 261.091 229.726 261.179 229.802 261.101C229.879 261.025 229.581 260.231 229.141 259.338C228.336 257.705 227.422 257.241 227.03 258.267ZM196.413 259.849C195.92 260.376 195.611 260.902 195.726 261.018C195.841 261.133 199.924 262.154 204.801 263.286C209.677 264.418 213.874 265.473 214.128 265.631C214.381 265.788 214.747 266.335 214.941 266.846C215.864 269.284 220.009 266.372 219.487 263.653C219.335 262.861 217.275 262.367 215.698 262.745C214.894 262.938 210.439 262.01 198.118 259.083C197.585 258.956 197.006 259.216 196.413 259.849ZM223.216 261.553C220.738 261.794 220.807 262.266 223.396 262.776C224.616 263.015 224.645 263.048 223.679 263.088C223.086 263.112 222.072 262.858 221.426 262.523C220.781 262.189 220.198 261.971 220.131 262.04C220.064 262.108 220.1 262.97 220.212 263.954L220.414 265.744L221.886 265.164C223.272 264.617 223.418 264.631 224.399 265.406C225.692 266.427 225.973 266.431 226.501 265.44C227.05 264.41 226.639 263.177 225.592 262.713C224.575 262.262 227.183 262.497 230.153 263.124C232.382 263.595 233.048 263.438 233.048 262.44C233.048 261.798 232.728 261.729 229.964 261.776C228.267 261.805 226.879 261.686 226.879 261.513C226.879 261.339 226.575 261.227 226.205 261.262C225.834 261.298 224.489 261.429 223.216 261.553ZM233.356 262.713C233.193 263.827 233.261 263.906 234.379 263.906C235.037 263.906 235.978 264.189 236.468 264.534C237.292 265.113 237.41 265.113 237.994 264.527C238.868 263.649 238.173 262.628 236.476 262.295C235.757 262.154 234.8 261.922 234.35 261.779C233.655 261.559 233.505 261.701 233.356 262.713ZM238.983 263.468C239.006 264.558 239.111 265.45 239.218 265.45C239.324 265.45 240.061 265.269 240.856 265.047C242.934 264.468 245.435 265.62 246.5 267.646L247.281 269.131L247.297 267.641C247.336 264.273 245.059 262.044 241.222 261.694L238.942 261.487L238.983 263.468ZM227.265 264.646C227.265 265.745 227.354 265.834 228.234 265.612C228.767 265.478 229.417 265.537 229.68 265.744C229.942 265.951 230.834 266.14 231.662 266.165C232.633 266.194 233.424 266.487 233.894 266.993C234.757 267.923 235.11 267.966 235.732 267.214C236.525 266.255 235.86 265.258 234.108 264.779C232.745 264.405 232.397 264.426 232.035 264.901C231.665 265.389 231.571 265.358 231.397 264.689C231.241 264.091 230.874 263.906 229.839 263.906C229.094 263.906 228.21 263.801 227.875 263.671C227.399 263.488 227.265 263.702 227.265 264.646ZM182.828 264.124C182.376 264.59 182.489 266.41 183.001 266.925C183.635 267.561 184.66 267.508 185.238 266.809C185.893 266.016 186.394 266.08 186.394 266.955C186.394 267.355 186.017 267.933 185.556 268.241C184.228 269.126 184.878 270.098 186.798 270.098C188.034 270.098 188.629 269.85 189.509 268.967C191.178 267.292 190.872 266.196 188.375 264.901C186.954 264.163 183.288 263.65 182.828 264.124ZM236.519 266.749C236.519 267.681 237.583 268.937 238.373 268.937C239.042 268.937 239.378 267.082 238.828 266.417C238.566 266.1 237.939 265.841 237.435 265.841C236.731 265.841 236.519 266.051 236.519 266.749ZM192.467 266.882C192.075 266.985 191.792 267.426 191.792 267.937C191.792 268.593 191.3 269.084 189.838 269.882C186.043 271.955 186.828 272.793 192.572 272.801C195.769 272.806 197.565 273.046 201.054 273.935C227.779 280.747 232.805 282.104 233.441 282.682C233.837 283.042 234.215 283.692 234.28 284.127C234.755 287.313 240.675 284.81 241.362 281.134C241.721 279.218 241.276 278.546 239.204 277.874C237.865 277.441 237.189 277.421 235.86 277.778C234.293 278.198 233.127 277.958 216.367 273.755C204.242 270.714 198.108 269.002 197.19 268.402C196.088 267.683 193.332 266.485 193.181 266.66C193.159 266.685 192.838 266.785 192.467 266.882ZM239.989 267.531C239.989 267.821 239.634 268.512 239.2 269.065C238.458 270.012 238.449 270.129 239.041 271.037C240.367 273.067 238.87 275.479 236.023 275.903L234.398 276.146L235.979 276.649C239.475 277.761 243.022 274.505 242.582 270.587C242.344 268.469 239.989 265.694 239.989 267.531ZM267.74 268.674C266.569 269.158 264.824 270.097 263.864 270.76C261.753 272.218 257.339 276.875 257.339 277.645C257.339 278.434 258.467 278.934 260.138 278.887C262.438 278.821 263.66 279.991 263.894 282.481C264.199 285.729 265.879 286.166 267.312 283.372C268.344 281.356 271.383 278.405 273.508 277.354C276.205 276.02 279.53 276.181 282.926 277.811C285.452 279.022 288.462 281.568 289.823 283.643C290.451 284.601 290.458 284.588 290.478 282.4C290.535 276.203 285.53 270.674 277.801 268.394C274.693 267.477 270.346 267.598 267.74 268.674ZM242.135 281.473C241.953 282.696 241.489 283.579 240.481 284.621C239.15 285.996 239.116 286.094 239.801 286.597C240.197 286.888 241.139 287.139 241.894 287.155C242.649 287.171 243.873 287.404 244.615 287.673C245.72 288.073 246.093 288.507 246.668 290.063C247.437 292.141 248.313 293.318 249.091 293.318C251.046 293.318 252.863 290.885 252.64 288.565C252.527 287.394 252.362 287.268 249.87 286.457C246.608 285.395 246.454 285.268 244.761 282.229C244.008 280.878 243.167 279.773 242.891 279.773C242.594 279.773 242.286 280.466 242.135 281.473ZM245.387 281.098C245.387 283.132 248.651 285.675 251.939 286.203C253.113 286.391 253.662 286.709 253.964 287.374C254.446 288.436 254.848 288.536 255.177 287.675C255.879 285.841 255.028 284.423 253.22 284.413C252.107 284.407 248.74 282.695 247.238 281.372C245.584 279.914 245.387 279.885 245.387 281.098ZM258.676 281.486C258.372 282.216 257.773 282.924 257.346 283.06C256.908 283.2 256.568 283.646 256.568 284.081C256.568 284.876 260.435 289.061 261.17 289.061C261.421 289.061 261.581 288.017 261.581 286.375C261.581 284.897 261.754 283.581 261.966 283.449C262.602 283.055 262.403 281.759 261.581 280.934C260.392 279.741 259.317 279.945 258.676 281.486ZM255.89 287.507C255.008 288.925 255.332 289.703 257.347 291.001C258.411 291.686 260.138 293.227 261.185 294.424L263.087 296.6L264.469 295.256C266.353 293.423 266.167 292.534 263.77 291.923C261.496 291.343 259.291 289.922 257.847 288.105C256.581 286.512 256.52 286.494 255.89 287.507ZM253.3 291.342C253.165 291.959 252.717 292.77 252.305 293.144C251.166 294.179 251.366 294.865 252.809 294.871C254.457 294.879 254.877 295.189 255.6 296.924C256.79 299.783 259.7 299.585 260.257 296.606C260.578 294.885 260.12 294.323 257.876 293.693C256.532 293.315 255.883 292.846 255.133 291.71C253.959 289.928 253.624 289.861 253.3 291.342ZM265.533 295.539C264.632 296.535 263.894 297.397 263.894 297.455C263.894 297.512 264.571 297.905 265.399 298.33C267.181 299.242 269.165 301.531 269.5 303.062C269.934 305.045 272.839 304.124 273.337 301.846C273.653 300.401 273.336 299.843 271.401 298.436C270.547 297.814 269.419 296.496 268.896 295.505C268.372 294.515 267.77 293.71 267.558 293.717C267.345 293.723 266.434 294.543 265.533 295.539ZM260.876 297.776C260.632 298.312 259.997 298.917 259.465 299.121C258.181 299.61 258.242 300.084 259.667 300.677C261.031 301.243 261.581 302.107 261.581 303.681C261.581 306.778 265.476 306.908 266.635 303.849C267.14 302.514 266.813 301.787 265.216 300.698C264.458 300.181 263.46 299.094 262.998 298.282C262.017 296.557 261.487 296.43 260.876 297.776ZM275.117 301.815C274.762 303.204 274.207 304.114 273.106 305.112C271.5 306.569 271.529 306.627 274.09 307.057C276.084 307.392 278.863 308.835 280.163 310.212C282.124 312.287 282.977 314.818 282.977 318.552V321.922L283.824 320.874C285.327 319.016 286.451 315.437 286.402 312.667C286.345 309.442 285.205 306.941 282.589 304.302C280.765 302.461 276.953 299.908 276.016 299.9C275.791 299.898 275.386 300.76 275.117 301.815ZM266.802 305.746C265.923 307.079 265.806 307.563 266.035 308.928C266.659 312.662 267.4 313.095 269.523 310.964C271.093 309.389 271.281 307.536 270.033 305.945C268.533 304.03 267.957 303.995 266.802 305.746ZM271.459 311.217C270.412 312.595 269.144 313.308 267.364 313.52C266.469 313.627 266.409 313.764 266.525 315.437C266.6 316.52 266.417 317.691 266.068 318.369C265.303 319.853 262.627 322.258 261.395 322.568C259.995 322.921 257.871 322.435 255.625 321.248C253.038 319.881 253.098 319.902 253.098 320.32C253.098 321.15 256.297 324.247 258.006 325.073C260.48 326.269 264.508 326.314 266.979 325.173C270.798 323.41 273.76 319.749 274.167 316.286C274.401 314.296 273.895 311.764 273.024 310.569C272.528 309.888 272.442 309.924 271.459 311.217Z" stroke="#484848" stroke-width="1.5"/>
</svg>
